<?xml version="1.0" encoding="UTF-8" standalone="no"?>
<!-- Generator: Adobe Illustrator 19.0.0, SVG Export Plug-In . SVG Version: 6.00 Build 0)  -->

<svg
   xmlns:dc="http://purl.org/dc/elements/1.1/"
   xmlns:cc="http://creativecommons.org/ns#"
   xmlns:rdf="http://www.w3.org/1999/02/22-rdf-syntax-ns#"
   xmlns:svg="http://www.w3.org/2000/svg"
   xmlns="http://www.w3.org/2000/svg"
   xmlns:sodipodi="http://sodipodi.sourceforge.net/DTD/sodipodi-0.dtd"
   xmlns:inkscape="http://www.inkscape.org/namespaces/inkscape"
   version="1.1"
   id="Layer_1"
   x="0px"
   y="0px"
   viewBox="0 0 20 20"
   xml:space="preserve"
   sodipodi:docname="arrow.svg"
   width="20"
   height="20"
   inkscape:version="0.92.3 (2405546, 2018-03-11)"><metadata
   id="metadata43"><rdf:RDF><cc:Work
       rdf:about=""><dc:format>image/svg+xml</dc:format><dc:type
         rdf:resource="http://purl.org/dc/dcmitype/StillImage" /><dc:title></dc:title></cc:Work></rdf:RDF></metadata><defs
   id="defs41" /><sodipodi:namedview
   pagecolor="#ffffff"
   bordercolor="#666666"
   borderopacity="1"
   objecttolerance="10"
   gridtolerance="10"
   guidetolerance="10"
   inkscape:pageopacity="0"
   inkscape:pageshadow="2"
   inkscape:window-width="1366"
   inkscape:window-height="731"
   id="namedview39"
   showgrid="false"
   inkscape:zoom="13.217181"
   inkscape:cx="10.331066"
   inkscape:cy="12.707504"
   inkscape:window-x="0"
   inkscape:window-y="18"
   inkscape:window-maximized="0"
   inkscape:current-layer="Layer_1" />
<g
   id="g6"
   transform="matrix(0,0.04065041,-0.04065041,0,20.000001,1.3181563e-6)">
	<g
   id="g4">
		<path
   d="M 198.608,246.104 382.664,62.04 c 5.068,-5.056 7.856,-11.816 7.856,-19.024 0,-7.212 -2.788,-13.968 -7.856,-19.032 L 366.536,7.864 C 361.476,2.792 354.712,0 347.504,0 340.296,0 333.54,2.792 328.476,7.864 L 109.328,227.008 c -5.084,5.08 -7.868,11.868 -7.848,19.084 -0.02,7.248 2.76,14.028 7.848,19.112 l 218.944,218.932 c 5.064,5.072 11.82,7.864 19.032,7.864 7.208,0 13.964,-2.792 19.032,-7.864 l 16.124,-16.12 c 10.492,-10.492 10.492,-27.572 0,-38.06 z"
   id="path2"
   inkscape:connector-curvature="0" />
	</g>
</g>
<g
   id="g8"
   transform="translate(5e-5,-370.52004)">
</g>
<g
   id="g10"
   transform="translate(5e-5,-370.52004)">
</g>
<g
   id="g12"
   transform="translate(5e-5,-370.52004)">
</g>
<g
   id="g14"
   transform="translate(5e-5,-370.52004)">
</g>
<g
   id="g16"
   transform="translate(5e-5,-370.52004)">
</g>
<g
   id="g18"
   transform="translate(5e-5,-370.52004)">
</g>
<g
   id="g20"
   transform="translate(5e-5,-370.52004)">
</g>
<g
   id="g22"
   transform="translate(5e-5,-370.52004)">
</g>
<g
   id="g24"
   transform="translate(5e-5,-370.52004)">
</g>
<g
   id="g26"
   transform="translate(5e-5,-370.52004)">
</g>
<g
   id="g28"
   transform="translate(5e-5,-370.52004)">
</g>
<g
   id="g30"
   transform="translate(5e-5,-370.52004)">
</g>
<g
   id="g32"
   transform="translate(5e-5,-370.52004)">
</g>
<g
   id="g34"
   transform="translate(5e-5,-370.52004)">
</g>
<g
   id="g36"
   transform="translate(5e-5,-370.52004)">
</g>
</svg>