<?xml version="1.0" encoding="UTF-8" standalone="no"?>
<svg
   xmlns:dc="http://purl.org/dc/elements/1.1/"
   xmlns:cc="http://creativecommons.org/ns#"
   xmlns:rdf="http://www.w3.org/1999/02/22-rdf-syntax-ns#"
   xmlns:svg="http://www.w3.org/2000/svg"
   xmlns="http://www.w3.org/2000/svg"
   xmlns:sodipodi="http://sodipodi.sourceforge.net/DTD/sodipodi-0.dtd"
   xmlns:inkscape="http://www.inkscape.org/namespaces/inkscape"
   width="500"
   height="182.32169"
   version="1.1"
   viewBox="0 0 132.29165 48.239279"
   id="svg54"
   sodipodi:docname="bottom-bun.svg"
   inkscape:version="0.92.3 (2405546, 2018-03-11)">
  <metadata
     id="metadata60">
    <rdf:RDF>
      <cc:Work
         rdf:about="">
        <dc:format>image/svg+xml</dc:format>
        <dc:type
           rdf:resource="http://purl.org/dc/dcmitype/StillImage" />
        <dc:title></dc:title>
      </cc:Work>
    </rdf:RDF>
  </metadata>
  <defs
     id="defs58" />
  <sodipodi:namedview
     pagecolor="#ffffff"
     bordercolor="#666666"
     borderopacity="1"
     objecttolerance="10"
     gridtolerance="10"
     guidetolerance="10"
     inkscape:pageopacity="0"
     inkscape:pageshadow="2"
     inkscape:window-width="1366"
     inkscape:window-height="731"
     id="namedview56"
     showgrid="false"
     inkscape:zoom="0.96664029"
     inkscape:cx="222.97611"
     inkscape:cy="69.776295"
     inkscape:window-x="0"
     inkscape:window-y="18"
     inkscape:window-maximized="0"
     inkscape:current-layer="svg54"
     units="px" />
  <g
     transform="matrix(1.1054999,0,0,1.1054999,-125.32623,-55.29462)"
     id="g52">
    <g
       transform="matrix(0.35278,0,0,0.35278,32.431,-164.6)"
       id="g50">
      <path
         d="m 293.52,708.17 c -0.3086,-6.1289 1.2344,-15.812 6.2773,-19.812 -1.1016,2.4883 -1.3555,5.6914 -0.61719,7.4844 0.83594,2.0312 2.5938,2.4609 4.6602,2.0898 -2.0703,4.6133 -6.1367,9.5312 -10.32,10.238 z m 11.73,-15.289 c -0.0156,0.22656 -0.0391,0.46875 -0.0742,0.71484 -2.9141,1.1758 -3.4883,-1.6523 -2.2812,-3.9727 0.75,-1.4414 1.3281,-0.93359 1.7226,0.0664 -0.16797,0.95703 -0.51953,1.9102 -1.2188,2.9297 -0.5,0.73047 0.4336,1.6445 1.0586,0.9375 0.28906,-0.32813 0.54687,-0.66407 0.77734,-1.0039 0.0117,0.14063 0.0195,0.26172 0.0156,0.32813 z m 41.57,15.895 c -2.7031,0.76953 -5.1602,1.0469 -7.8164,0.5664 0.9961,-8.1602 6.3125,-15.863 1.4609,-23.773 -0.72656,-1.1797 -2.3984,-0.33985 -2.9648,0.48046 -3.7188,5.3828 -5.4062,11.965 -8.9922,17.465 -1.0938,1.6797 -2.5703,3.3203 -4.7539,2.2031 -1.4219,-0.73047 -0.71875,-3.6484 -0.53125,-4.8164 0.47266,-2.8984 1.7109,-5.6289 2.4844,-8.4531 0.6914,-2.5312 -2.6953,-3.2617 -3.4219,-0.89062 -1.7891,5.8594 -4.5664,11.289 -9.1523,15.309 -0.64063,-5.2188 3.0586,-11.02 2.6445,-16.406 -0.0977,-1.293 -1.5117,-1.6172 -2.4883,-1.1016 -1.5234,0.79687 -3.0117,1.6562 -4.5234,2.4726 0.16797,-2.1367 -0.19141,-4.1328 -1.4844,-5.4844 0.0586,-0.45703 0.11328,-0.91797 0.16796,-1.3906 0.0664,-0.59375 -0.26562,-1.3594 -0.92578,-1.4726 -13.137,-2.2266 -17.082,17.574 -16.148,27.012 0.0742,0.78125 0.71875,1.2109 1.4414,1.2578 6.0234,0.39844 11.07,-6.1445 13.844,-10.676 0.65625,-1.0703 1.4297,-2.6836 2.0508,-4.4805 1.5859,-0.74609 3.1445,-1.6562 4.4453,-2.4414 -0.6211,5.7578 -4.1953,10.879 -1.832,16.848 0.35938,0.91016 1.5977,1.2266 2.3867,0.66016 2.6094,-1.875 4.8125,-4.0703 6.6758,-6.5156 0.31641,2.5938 1.7539,4.5469 5.3594,4.8789 4.0586,0.37109 6.7305,-4.4219 8.3945,-7.3516 2.0938,-3.6875 3.5039,-7.8164 5.4844,-11.586 1.5273,6.2656 -3.2109,13.727 -3.5,19.973 -0.0391,0.83985 0.3164,1.6602 1.1914,1.8984 4.2188,1.1484 8.0547,0.85156 11.418,-2.0703 0.88281,-0.76563 0.375,-2.4766 -0.91406,-2.1133"
         id="path2"
         inkscape:connector-curvature="0"
         style="fill:#de6826" />
      <path
         d="m 521.55,666.56 c -0.72657,5.3984 -2.2461,12.152 -4.8711,17.152 -0.0156,-5.5234 2.0078,-12.059 4.8711,-17.152 z m -8.5156,22.059 c -1.9219,1.6953 -4.207,2.5039 -6.9023,1.9375 1.2773,-4.3984 4.3086,-7.7422 7.25,-11.172 -0.57031,2.9258 -0.85938,6.2148 -0.34766,9.2344 z m -20.145,-2.6641 c -0.96484,1.9492 -2.1836,3.7539 -3.6641,5.4062 0.17578,-2.6406 2.1094,-4.9219 4.0976,-7.2656 -0.16406,0.61719 -0.30859,1.2344 -0.43359,1.8594 z m -52.527,0.78125 c -0.15235,2.4688 -1.0938,4.7695 -2.5234,6.7852 0.0703,-2.3203 0.93359,-4.8672 2.5234,-6.7852 z m -46.871,17.516 c -0.082,-1.3594 0.0703,-2.6641 0.38672,-3.9297 1.7227,-2.7891 3.1016,-5.8516 4.2695,-8.5508 0.67188,-0.32812 1.4024,-0.55078 2.1562,-0.72656 -0.21875,5.3438 -2.0312,10.5 -6.8125,13.207 z m -27.551,-13.871 c 0.85547,-5.1016 2.1289,-11.535 5.3516,-16.012 1,4.2656 -0.75,9.2344 -2.2617,13.086 -0.82813,2.1055 -2.0781,4.7656 -3.7188,7.1133 0.18359,-1.4024 0.39453,-2.7969 0.6289,-4.1875 z m 170.21,-3.8789 c -1.8711,0.16406 -3.1523,-0.1875 -3.9492,-0.86719 1.0039,-3.25 1.3047,-6.4883 0.61719,-8.7226 -0.5039,-1.6328 -2.7422,-1.0391 -3.4102,0.0781 -1.9219,3.2305 -2.5469,7.1992 -1.4961,9.918 -2.7031,5.1875 -8.1953,8.6875 -10.445,2.0586 5.8945,-8.0117 8.332,-22.266 8.4453,-29.027 0.0274,-1.6953 -1.8125,-2.7344 -3.1016,-1.3672 -3.9961,4.2695 -6.4766,10.039 -8.1406,15.695 -0.55078,-0.17578 -1.2031,-0.0977 -1.7734,0.41016 -4.9766,4.4258 -9.4531,15.496 -16.992,15.516 0.0977,-1.2422 0.26953,-2.4609 0.5,-3.6641 1.0078,-2.2188 1.75,-4.8047 2.2734,-7.2891 0.004,-0.004 0.004,-0.23828 0.008,-0.23828 h -0.004 c 0.0352,0 0.082,-0.10938 0.11719,-0.27734 0.23438,-1.1992 -0.41016,-1.6055 -1.2148,-1.6289 0.0937,-0.41016 0.16015,-0.77344 0.1875,-1.2031 0.0976,-1.4297 -1.2188,-2.25 -2.4727,-1.5508 -7.0234,3.918 -9.4375,12.941 -15.777,17.297 1.25,-5.3672 2.7266,-10.672 1.2656,-16.188 -0.28125,-1.0547 -1.4453,-1.9024 -2.5,-1.1055 -5.5859,4.2227 -9.8008,9.6133 -13.809,15.223 0.20703,-3.1992 0.21094,-6.4062 0.19922,-9.6211 -0.008,-1.6367 -1.4922,-2.2031 -2.7188,-1.1992 -2.3516,1.9219 -4.168,4.3281 -5.7891,6.9024 -0.48437,-1.9492 -1.5469,-3.7227 -3.3125,-4.9961 -1.0469,-0.7539 -2.5703,0.66407 -2.2852,1.7812 1.2266,4.7774 -0.17188,9.2344 -0.78906,13.863 -0.51954,0.74219 -1.0625,1.4688 -1.6406,2.1524 -0.42187,-0.3711 -1.0547,-0.48828 -1.8438,-0.082 -3.668,1.8828 -6.082,1.2422 -7.3633,-0.54688 3.8203,-4.1641 6.0938,-9.6406 4.9219,-15.387 -0.25781,-1.2734 -1.4726,-1.7734 -2.5976,-1.1523 -5.6445,3.1172 -8.4766,9.8945 -7.207,16.156 -0.39063,0.30078 -0.78907,0.58984 -1.1953,0.86328 -1.5781,-4.0234 -0.10937,-9.2461 0,-13.359 0.0469,-1.6524 -1.7773,-2.6641 -3.0117,-1.332 -3.7305,4.0234 -5.9024,9.8203 -9.8789,13.621 0.14844,-4.4844 0.22656,-8.875 -1.2461,-13.262 -0.4375,-1.2969 -2.0664,-1.082 -2.875,-0.35938 -3.8086,3.4219 -6.1914,7.5391 -7.9766,12.023 -0.27343,-2.7383 -0.53906,-5.4805 -1.0234,-8.1953 -0.17188,-0.95703 -1.1211,-1.7422 -2.1211,-1.3477 -0.26953,0.10157 -0.53906,0.1875 -0.8125,0.27735 -0.0234,-0.3086 -0.0391,-0.6211 -0.0703,-0.92969 -0.0898,-0.83984 -0.81641,-1.4258 -1.6406,-1.4219 -5.5273,0.0117 -6.9766,1.7266 -8.0586,7.043 -0.0234,0.12891 -0.0391,0.25 -0.043,0.36328 -1.5,2.5586 -2.875,5.168 -3.668,7.9102 -1.9102,2.8398 -4.3203,5.1172 -7.4609,5.6133 0.49609,-4.7344 1.9883,-9.3203 2.8516,-14.004 0.41406,-2.25 -2.2891,-2.1289 -3.2969,-0.87891 -4.293,5.332 -9.7266,17.305 -17.801,17.125 -0.16797,-2.875 -0.0898,-5.7656 0.15625,-8.6484 2.4453,-2.2969 4.4024,-5.3906 5.8008,-7.8984 3.1719,-5.6875 6.293,-14.355 2.9297,-20.605 -0.58594,-1.082 -1.8242,-1.1406 -2.6914,-0.33594 -4.6133,4.2617 -6.5312,11.012 -7.8203,16.941 -0.86719,3.9805 -1.5273,8.0469 -1.8633,12.137 -1.2656,0.85157 -2.6523,1.3945 -4.1602,1.457 -0.71875,0.0312 -1.2031,1.3984 -0.33593,1.5117 1.543,0.19922 2.9883,-0.0625 4.332,-0.6289 -0.14063,2.8164 -0.1211,5.6328 0.12109,8.4336 0.0469,0.57813 0.53906,1.2539 1.1445,1.3438 8.0547,1.2461 13.469,-5.3438 18.031,-11.828 -0.59765,2.6289 -1.0976,5.2773 -1.1992,7.9922 -0.043,1.0586 0.53516,1.8438 1.6289,1.9062 3.6289,0.20313 6.5781,-1.2383 9.0156,-3.5156 0.0703,0.69531 0.17578,1.3945 0.34765,2.1094 0.23047,0.9336 1.0703,1.7344 2.1055,1.3398 7.207,-2.7617 10.617,-8.9297 11.512,-15.852 0.4375,3.8398 0.6875,7.7031 1.3672,11.516 0.36718,2.0508 3.0859,1.6719 3.5976,-0.10547 1.6524,-5.7617 3.3906,-11.266 7.1914,-15.77 0.73437,4.0664 0.27344,8.2188 0.20312,12.371 -0.0273,1.4531 1.2305,2.4375 2.5938,1.6524 4.7227,-2.7305 7.1172,-7.3945 9.9648,-11.762 -0.32813,3.9805 -0.38672,7.8867 1.8242,11.488 0.45703,0.74609 1.5742,0.62891 2.2109,0.27344 0.94141,-0.52344 1.8555,-1.1172 2.7344,-1.7695 1.8242,2.5859 4.8828,3.207 7.9922,2.4883 0.10156,0.19531 0.3125,0.3125 0.63281,0.23437 2.1484,-0.54297 3.9453,-1.6172 5.5234,-3.0195 0.49218,1.4492 2.7383,1.0312 2.8672,-0.69141 0.0703,-0.96875 0.1875,-1.9336 0.32032,-2.8984 0.26953,-0.36719 0.53515,-0.7461 0.79297,-1.1289 0.72265,-0.83203 1.3242,-1.7734 1.7812,-2.7812 1.9102,-3.1445 3.7109,-6.4375 5.8945,-9.1055 -0.082,4.0274 -0.3125,8.0312 -1.0274,12.016 -0.37109,2.082 2.2305,2.168 3.168,0.84375 4.375,-6.1445 8.5352,-12.613 14.262,-17.578 0.45313,5.3008 -1.5039,10.504 -2.4883,15.738 -0.21094,1.1289 0.96875,2.2383 2.0781,1.8047 3.7461,-1.4609 6.2695,-4.0859 8.4844,-7.0039 -0.43359,1.9453 -0.21875,3.9531 0.60547,6.125 0.46875,1.2305 1.9336,1.0391 2.7461,0.33985 1.2031,-1.0312 2.2695,-2.1445 3.2461,-3.3125 0.17187,0.4375 0.48437,0.80469 0.99218,0.88281 3.5977,0.57031 6.4727,-0.41797 8.9531,-2.2109 -0.0274,0.125 -0.0625,0.2461 -0.0859,0.375 -0.16797,0.83594 0.41406,1.5352 1.1406,1.8125 4.3281,1.668 7.9219,0.82422 10.883,-1.4961 0.58594,1.1719 1.3633,2.2422 2.4062,3.1406 5.5078,4.7617 10.855,0.28125 13.926,-5.8008 1.3828,0.5625 3.2461,0.5625 5.6445,-0.27343 1.3047,-0.45704 1.7734,-3.1016 -0.0547,-2.9414"
         id="path4"
         inkscape:connector-curvature="0"
         style="fill:#de6826" />
      <g
         id="g12"
         style="fill:#572e1e">
        <path
           d="m 232.56,645.11 -0.86328,0.0352 0.26172,-0.0156 z"
           id="path6"
           inkscape:connector-curvature="0" />
        <path
           d="m 231.11,645.17 -1.457,0.0547 v -0.13672 l 0.0117,-0.0469 1.4453,0.12891"
           id="path8"
           inkscape:connector-curvature="0" />
        <path
           d="m 565.73,647.29 -0.33984,-0.0117 h -0.0977 v -0.0156 l 0.4375,0.0273"
           id="path10"
           inkscape:connector-curvature="0" />
      </g>
      <path
         d="m 399.52,611.13 c 75.93,0 117.62,9.3945 140.18,18.691 11.285,4.6445 17.809,9.2539 21.477,12.648 1.8359,1.6914 2.9609,3.0859 3.6211,4.0312 0.31641,0.46875 0.53125,0.83203 0.65625,1.0625 l 0.0117,0.0273 c -0.0508,0.30469 -0.16406,0.83203 -0.41797,1.5508 -0.69921,1.9453 -2.4453,5.2695 -6.9297,9.2266 -6.7148,5.9258 -19.629,13.238 -44.285,19.062 -24.648,5.8125 -61.016,10.133 -114.56,10.133 -83.07,0.008 -124.9,-10.945 -145.79,-21.715 -10.445,-5.3789 -15.652,-10.695 -18.273,-14.57 -1.3008,-1.9414 -1.9609,-3.5312 -2.3008,-4.6016 -0.16406,-0.54688 -0.2539,-0.95313 -0.30078,-1.2109 v -0.0117 c 0.44531,-0.73047 1.8438,-2.7344 5.2305,-5.4648 6.1055,-4.9062 18.688,-12.137 43.676,-18.117 24.996,-5.9883 62.375,-10.742 118.01,-10.742"
         id="path14"
         inkscape:connector-curvature="0"
         style="fill:#ae682b" />
      <path
         d="m 232.56,645.11 v 0.008 l -0.60156,0.0195 z"
         id="path16"
         inkscape:connector-curvature="0"
         style="fill:#572e1e" />
      <path
         d="m 307.84,691.68 c 2.5703,9.2109 12.547,23.445 12.859,23.887 -0.60937,-0.10938 -26.125,-5.043 -52.957,-15.379 -30.18,-11.641 -31.031,-38.801 -31.031,-38.801 14.547,23.398 71.129,30.293 71.129,30.293"
         id="path18"
         inkscape:connector-curvature="0"
         style="fill:#824726" />
      <g
         id="g28"
         style="fill:#572e1e">
        <path
           d="m 565.65,649.74 0.5039,-0.0117 c -0.13281,0.35156 -0.28906,0.73047 -0.48437,1.1367 0,-0.3711 -0.0117,-0.7461 -0.0195,-1.125"
           id="path20"
           inkscape:connector-curvature="0" />
        <path
           d="m 232.44,645.72 v 0.008 l -0.0312,-0.0156 z"
           id="path22"
           inkscape:connector-curvature="0" />
        <path
           d="m 232.25,645.65 h -0.0195 l -0.45703,-0.20313 z"
           id="path24"
           inkscape:connector-curvature="0" />
        <path
           d="m 565.75,647.7 -0.35156,0.14062 h -0.008 v -0.0117 l 0.35937,-0.1289"
           id="path26"
           inkscape:connector-curvature="0" />
      </g>
      <path
         d="m 559.89,660.38 c 2.7305,-2.4102 4.5742,-4.6641 5.8164,-6.5977 -0.0117,16.012 -2.7539,26.254 -6.7617,33.047 -4.0117,6.7891 -9.2695,10.227 -14.766,12.676 -50.059,22.152 -99.574,29.781 -143.59,29.781 -42.398,0 -79.684,-7.0859 -107.37,-15.094 -13.848,-4.0078 -25.289,-8.25 -33.766,-11.945 -4.2383,-1.8477 -7.7266,-3.5547 -10.395,-5.0234 -2.6562,-1.4609 -4.5195,-2.7188 -5.3711,-3.5039 -2.4062,-2.1992 -4.3438,-5.0273 -5.8984,-8.2305 -2.3164,-4.8125 -3.7226,-10.477 -4.5469,-16 -0.81641,-5.5234 -1.0469,-10.91 -1.0469,-15.188 0,-0.84375 0.008,-1.6367 0.0195,-2.375 0.17578,0.26563 0.34766,0.54688 0.54297,0.83204 2.1797,3.2422 5.8945,7.2148 12.16,11.344 9.4062,6.1875 24.555,12.73 49.051,17.727 24.492,5 58.348,8.4648 105.2,8.4648 71.566,0 112.7,-7.6797 136.48,-16.527 11.891,-4.4258 19.445,-9.1562 24.246,-13.387 z M 320.7,715.568 c -0.3125,-0.44141 -10.289,-14.676 -12.859,-23.887 0,0 -56.582,-6.8945 -71.129,-30.293 0,0 0.85157,27.16 31.031,38.801 26.832,10.336 52.348,15.27 52.957,15.379"
         id="path30"
         inkscape:connector-curvature="0"
         style="fill:#9c5c2b" />
      <g
         id="g44"
         style="fill:#572e1e">
        <path
           d="m 233.03,645.16 v -0.0352 c -0.0273,0.043 -0.0469,0.0742 -0.0703,0.11328 0.0352,-0.0312 0.0703,-0.0586 0.0703,-0.0781"
           id="path32"
           inkscape:connector-curvature="0" />
        <path
           d="m 232.84,645.44 c 0.0352,-0.0547 0.082,-0.13281 0.125,-0.19922 -0.0625,0.0469 -0.13672,0.11328 -0.125,0.19922"
           id="path34"
           inkscape:connector-curvature="0" />
        <path
           d="m 558.95,686.82 c -4.0117,6.7891 -9.2695,10.227 -14.766,12.672 -50.059,22.156 -99.574,29.785 -143.59,29.785 -42.398,0 -79.684,-7.0859 -107.37,-15.094 -13.848,-4.0078 -25.289,-8.25 -33.766,-11.945 -4.2383,-1.8477 -7.7266,-3.5547 -10.395,-5.0234 -2.6562,-1.4609 -4.5195,-2.7188 -5.3711,-3.5039 -2.4062,-2.1992 -4.3438,-5.0273 -5.8984,-8.2305 -2.3164,-4.8125 -3.7226,-10.477 -4.5469,-16 -0.81641,-5.5234 -1.0469,-10.914 -1.0469,-15.188 0,-0.77734 0.008,-1.5117 0.0156,-2.2031 0.15625,0.21484 0.32812,0.43359 0.48047,0.66016 2.1836,3.2422 5.9297,7.2148 12.195,11.344 9.4062,6.1875 24.57,12.73 49.062,17.727 24.496,5 58.359,8.4648 105.21,8.4648 71.566,0 112.71,-7.6797 136.48,-16.527 11.891,-4.4258 19.516,-9.1562 24.316,-13.387 2.6172,-2.3086 4.7148,-4.4727 5.7461,-6.3477 -0.0391,15.863 -2.7695,26.043 -6.7578,32.797 z M 232.06,645.562 c 0.004,0 0.004,0.004 0.004,0.004 m -0.008,-0.0234 0.73437,0.79688 -0.0195,-0.54297 c 0,-0.14062 0.23047,-0.36328 0.23047,-0.64062 v -0.0547 0.0195 c 0,-0.89844 1.9414,-2.7422 4.9297,-5.1484 6.1016,-4.9062 18.629,-12.129 43.598,-18.109 24.98,-5.9844 62.309,-10.734 117.91,-10.734 75.879,0 117.53,9.3867 140.09,18.68 11.277,4.6367 17.785,9.25 21.453,12.641 1.832,1.6914 2.9531,3.082 3.6133,4.0274 0.32031,0.46875 0.53125,0.83203 0.65625,1.0625 l 0.0117,0.0273 c 0.0351,0.0625 0.0625,0.10938 0.082,0.14844 -0.0742,0.3125 -0.22657,0.78125 -0.44532,1.4023 -0.69921,1.9414 -2.4726,5.2656 -6.9531,9.2227 -6.707,5.9219 -19.629,13.227 -44.273,19.047 -24.629,5.8125 -60.98,10.125 -114.49,10.125 -83.02,0.008 -124.83,-10.938 -145.71,-21.699 -10.434,-5.3789 -15.645,-10.688 -18.262,-14.559 -1.3008,-1.9414 -1.9609,-3.5312 -2.3008,-4.6016 -0.10156,-0.34375 -0.26562,-0.625 -0.38672,-0.85547 0.004,-0.0859 0.0117,-0.17969 0.0195,-0.24609 m -2.8828,-0.33203 c 0.004,0.043 -0.0312,-0.44922 0.0117,-0.17188 -0.45703,1.3047 -0.15234,5.0977 -0.15234,9.2461 0,5.8281 0.30469,13.672 2.0273,21.301 0.86328,3.8281 2.0117,7.5938 3.668,11.043 1.6602,3.4453 3.7539,6.5664 6.4883,9.0703 1.2031,1.0898 3.1484,2.375 5.9219,3.9062 4.8516,2.6602 12.125,6.0039 21.531,9.543 28.191,10.609 75.355,22.895 131.45,22.895 44.367,0 94.324,-7.6953 144.81,-30.043 5.8203,-2.5586 11.742,-6.4492 16.086,-13.828 4.3477,-7.3828 7.1172,-18.137 7.1289,-34.469 0,-1.3125 -0.0625,-5.2109 -0.40625,-6.625 l -0.10938,-0.25781 c -0.0781,-0.1875 -1.1523,-2.7188 -5.1094,-6.3672 -5.9453,-5.4844 -18.32,-13.504 -43.445,-20.156 -25.137,-6.6523 -63.043,-11.945 -120.14,-11.945 -76.133,0 -118.38,8.8594 -141.7,17.812 -11.664,4.4688 -18.598,8.9766 -22.652,12.426 -4.043,3.4453 -5.1992,5.8281 -5.2734,6.0117 l -0.13672,0.28516 0.008,0.1875 0.0117,-0.043"
           id="path36"
           inkscape:connector-curvature="0" />
        <path
           d="m 565.96,647.3 -0.57422,-0.0195 0.33984,0.0117 z"
           id="path38"
           inkscape:connector-curvature="0" />
        <path
           d="m 321.39,714.87 -0.0117,-0.0117 -1.3438,1.4141 0.008,0.0117"
           id="path40"
           inkscape:connector-curvature="0" />
        <path
           d="m 236.71,661.38 -0.97656,0.0274 c 0.004,0.0898 0.22656,7.0078 4.2969,15.434 4.0625,8.418 12.027,18.344 27.359,24.25 26.934,10.375 52.469,15.309 53.133,15.43 l 2.3359,0.42578 -1.3594,-1.9453 c -0.14844,-0.21094 -2.7109,-3.8633 -5.5469,-8.5977 -2.8359,-4.7266 -5.9414,-10.566 -7.1719,-14.996 l -0.17579,-0.62891 -0.64843,-0.0781 c 0,0 -0.21094,-0.0234 -0.625,-0.082 -3.1016,-0.41406 -17.277,-2.4766 -32.324,-7.1562 -7.5234,-2.3359 -15.266,-5.332 -21.934,-9.0781 -6.6758,-3.7422 -12.262,-8.2461 -15.535,-13.52 l -1.918,-3.0859 0.11328,3.6289 0.97656,-0.0274 -0.82812,0.51172 c 3.7812,6.0742 10.18,10.965 17.617,14.953 11.156,5.9726 24.688,9.9062 35.453,12.363 10.762,2.457 18.746,3.4297 18.77,3.4336 l 0.11719,-0.96875 -0.94141,0.26172 c 1.3398,4.7812 4.5078,10.664 7.3789,15.469 2.875,4.8008 5.4609,8.4883 5.6211,8.7188 l 0.80078,-0.5625 0.17579,-0.95703 c -0.5586,-0.10156 -26.051,-5.0312 -52.781,-15.336 -14.848,-5.7305 -22.398,-15.207 -26.305,-23.277 -1.9531,-4.0352 -2.9805,-7.7148 -3.5195,-10.379 -0.26563,-1.332 -0.41407,-2.4102 -0.49219,-3.1445 -0.043,-0.37109 -0.0625,-0.65625 -0.0781,-0.84766 -0.004,-0.0937 -0.008,-0.16406 -0.0117,-0.21093 l -0.004,-0.0586 -0.97266,0.0312 -0.82812,0.51172 0.82812,-0.51172"
           id="path42"
           inkscape:connector-curvature="0" />
      </g>
      <path
         d="m 562.18,644.3 0.0469,0.0547 L 562.18,644.3"
         id="path46"
         inkscape:connector-curvature="0"
         style="fill:#9c5c2b" />
      <path
         d="m 269.45,630.35 c 7.4492,-0.92969 12.711,-5.1953 17.727,-9.957 -11.586,2.5039 -20.816,5.293 -28.141,8.0938 -2.2656,0.86719 -4.3438,1.7344 -6.2617,2.5898 5.8984,0.375 11.918,-0.1289 16.676,-0.72656"
         id="path48"
         inkscape:connector-curvature="0"
         style="fill:#9c5c2b" />
    </g>
  </g>
</svg>
