<?xml version="1.0" encoding="UTF-8" standalone="no"?>
<svg
   xmlns:dc="http://purl.org/dc/elements/1.1/"
   xmlns:cc="http://creativecommons.org/ns#"
   xmlns:rdf="http://www.w3.org/1999/02/22-rdf-syntax-ns#"
   xmlns:svg="http://www.w3.org/2000/svg"
   xmlns="http://www.w3.org/2000/svg"
   xmlns:sodipodi="http://sodipodi.sourceforge.net/DTD/sodipodi-0.dtd"
   xmlns:inkscape="http://www.inkscape.org/namespaces/inkscape"
   width="500"
   height="200"
   version="1.1"
   viewBox="0 0 132.29167 52.916667"
   id="svg880"
   sodipodi:docname="cheese.svg"
   inkscape:version="0.92.3 (2405546, 2018-03-11)">
  <metadata
     id="metadata886">
    <rdf:RDF>
      <cc:Work
         rdf:about="">
        <dc:format>image/svg+xml</dc:format>
        <dc:type
           rdf:resource="http://purl.org/dc/dcmitype/StillImage" />
        <dc:title></dc:title>
      </cc:Work>
    </rdf:RDF>
  </metadata>
  <defs
     id="defs884" />
  <sodipodi:namedview
     pagecolor="#ffffff"
     bordercolor="#666666"
     borderopacity="1"
     objecttolerance="10"
     gridtolerance="10"
     guidetolerance="10"
     inkscape:pageopacity="0"
     inkscape:pageshadow="2"
     inkscape:window-width="1366"
     inkscape:window-height="731"
     id="namedview882"
     showgrid="false"
     units="px"
     inkscape:zoom="0.75243037"
     inkscape:cx="271.50073"
     inkscape:cy="183.51079"
     inkscape:window-x="0"
     inkscape:window-y="18"
     inkscape:window-maximized="0"
     inkscape:current-layer="svg880" />
  <g
     transform="matrix(0.99939586,0,0,1.2408468,-100.35939,-8.3661788)"
     id="g878">
    <g
       transform="matrix(0.35278,0,0,0.35278,98.471,-79.613)"
       id="g876">
      <path
         d="m 213.98,247.94 c 29.582,8.7266 59.762,15.422 89.16,24.77 6.7734,2.1562 13.602,4.2266 20.496,6.0508 h 0.008 c 0.17578,0 0.3125,0.0391 0.4414,0.0977 0.33203,0.0508 0.67188,0.11718 0.98438,0.19531 0.10547,0.0312 0.19531,0.0898 0.28125,0.14844 5.5352,1.4258 11.117,2.6719 16.758,3.6289 6.3359,1.0625 12.961,1.9609 19.004,4.1602 1.6016,1.0234 3.4766,1.6875 5.3086,2.3789 2.1758,1.2188 4.2344,2.6758 6.1016,4.4922 0.46875,0.44532 1.0039,0.1836 1.25,-0.26562 1.043,0.8789 2.0195,1.8633 2.8672,2.957 2.9961,3.8164 1.9844,8.5117 -0.0664,12.465 -1.6211,3.1133 -2.7812,5.5703 -5.9766,6.3711 0.0508,-0.27344 0.0117,-0.53516 -0.16406,-0.75 -3.7774,-4.5664 -7.9141,-10.441 -12.883,-13.793 -5.5898,-3.7656 -13.363,-0.70313 -18.984,1.1836 -22,7.3984 -43.957,14.121 -66.316,20.281 -11.039,3.043 -22,6.332 -32.758,10.297 -7.1602,2.6328 -15.32,5.1992 -21.441,9.9336 -4.8008,3.7109 -9.0859,8.1133 -13.469,12.297 -1.3477,1.2891 -10.93,11.559 -13.027,9.75 -0.24609,-0.20313 -0.5664,-0.0469 -0.66406,0.19921 0.0391,-0.28515 -0.0508,-0.57031 -0.38281,-0.72656 -5.9531,-2.9258 -8.7617,-8.9688 -13.262,-13.547 -4.3828,-4.4688 -9.7109,-7.9531 -15.227,-10.859 -11.887,-6.2695 -25.211,-9.4023 -38.133,-12.68 -13.75,-3.4726 -27.258,-7.7695 -40.629,-12.492 -15.676,-5.5625 -30.414,-12.863 -45.699,-19.305 -0.14453,-0.0703 -0.28125,0.0664 -0.29297,0.20312 -8.5859,-2.9258 -16.875,4.6172 -21.723,11.148 -0.89843,1.2109 -3.457,6.3516 -5.457,5.4922 -3.1523,-1.3477 -3.4141,-8.0625 -3.1719,-10.688 0.60547,-6.6641 5.3594,-13.566 11.469,-16.289 l 0.19531,0.23437 c -0.30469,0.27344 -0.59766,0.5586 -0.87891,0.84766 -0.0781,0.0898 0.008,0.20703 0.10547,0.1289 5.3125,-4.4023 13.004,-5.3555 19.582,-6.4531 6.6328,-1.1094 13.047,-2.5156 19.578,-4.1641 5.0625,-1.2891 10.121,-2.5977 15.176,-3.8867 l 0.0273,0.0195 0.0195,-0.0391 c 12.652,-3.25 25.289,-6.4805 37.988,-9.5352 17.605,-4.2148 35.309,-7.9922 53.102,-11.32 16.641,-3.1133 34.777,-8.2969 51.152,-1.4453 0.48828,0.21484 0.98828,-0.58594 0.5,-0.8086 -0.34375,-0.15625 -0.69531,-0.30469 -1.0469,-0.44922 l 0.0976,-0.23437"
         id="path866"
         inkscape:connector-curvature="0"
         style="fill:#f07a23" />
      <g
         id="g874"
         style="fill:#ae4f2b">
        <path
           d="m 370.58,315.08 c 3.1953,-0.80078 4.3555,-3.2578 5.9766,-6.3711 2.0508,-3.9531 3.0625,-8.6484 0.0664,-12.465 -0.84766,-1.0938 -1.8242,-2.0781 -2.8672,-2.957 -0.24609,0.44922 -0.78125,0.71094 -1.25,0.26562 -1.8672,-1.8164 -3.9258,-3.2734 -6.1016,-4.4922 -1.832,-0.69141 -3.707,-1.3555 -5.3086,-2.3789 -6.043,-2.1992 -12.668,-3.0977 -19.004,-4.1602 -5.6406,-0.95703 -11.223,-2.2031 -16.758,-3.6289 -0.0859,-0.0586 -0.17578,-0.11719 -0.28125,-0.14844 -0.3125,-0.0781 -0.65235,-0.14453 -0.98438,-0.19531 -0.1289,-0.0586 -0.26562,-0.0977 -0.4414,-0.0977 h -0.008 c -6.8945,-1.8242 -13.723,-3.8945 -20.496,-6.0508 -29.398,-9.3477 -59.578,-16.043 -89.16,-24.77 -0.18359,-0.0586 -0.0781,-0.35156 0.0977,-0.3125 16.32,2.9961 32.414,7.8164 48.391,12.25 15.52,4.293 31.016,8.5859 46.645,12.492 12.852,3.1992 25.57,6.7422 38.609,9.0469 5.0742,0.88672 11.262,1.8516 16.613,4.0703 3.6367,0.9961 7.5039,3.2891 10.07,5.3398 3.3594,2.6641 5.7891,5.7656 6.293,10.109 0.5586,4.7617 -2.4375,9.3516 -4.9961,13.066 -1.7852,2.5781 -3.6953,3.125 -6.7539,2.4141 -0.23047,-0.0586 -0.26953,-0.27344 -0.21484,-0.46094 -4.8789,-3.8555 -8.1953,-11.984 -14.258,-13.859 -4.0508,-1.2578 -8.3555,-0.22266 -12.27,1.0938 -5.5625,1.8945 -11.125,3.8164 -16.688,5.7188 -22.332,7.6719 -45.219,13.117 -67.766,20.059 -11.887,3.6484 -23.609,7.7695 -34.863,13.086 -4.7891,2.2852 -8.6953,6.5977 -12.531,10.16 -1.6602,1.5234 -17.098,17.668 -19.449,12.883 l -0.0312,-0.14453 0.0117,-0.16407 c 0.0977,-0.24609 0.41797,-0.40234 0.66406,-0.19921 2.0977,1.8086 11.68,-8.4609 13.027,-9.75 4.3828,-4.1836 8.668,-8.5859 13.469,-12.297 6.1211,-4.7344 14.281,-7.3008 21.441,-9.9336 10.758,-3.9648 21.719,-7.2539 32.758,-10.297 22.359,-6.1602 44.316,-12.883 66.316,-20.281 5.6211,-1.8867 13.395,-4.9492 18.984,-1.1836 4.9688,3.3516 9.1055,9.2266 12.883,13.793 0.17578,0.21484 0.21484,0.47656 0.16406,0.75"
           id="path868"
           inkscape:connector-curvature="0" />
        <path
           d="m 56.948,275.33 c -6.5312,1.6484 -12.945,3.0547 -19.578,4.1641 -6.5781,1.0977 -14.27,2.0508 -19.582,6.4531 -0.0977,0.0781 -0.18359,-0.0391 -0.10547,-0.1289 0.28125,-0.28906 0.57422,-0.57422 0.87891,-0.84766 3.9727,-3.5039 9.875,-4.625 14.91,-5.582 7.2344,-1.3867 14.398,-2.5977 21.551,-4.4219 19.492,-4.9688 38.934,-10.141 58.512,-14.758 19.012,-4.4688 38.141,-8.2188 57.293,-11.992 13.996,-2.7617 29.367,-5.9258 43.039,-0.35157 0.35156,0.14453 0.70312,0.29297 1.0469,0.44922 0.48828,0.22266 -0.0117,1.0234 -0.5,0.8086 -16.375,-6.8516 -34.512,-1.668 -51.152,1.4453 -17.793,3.3281 -35.496,7.1055 -53.102,11.32 -12.699,3.0547 -25.336,6.2852 -37.988,9.5352 l -0.0195,0.0391 -0.0273,-0.0195 c -5.0547,1.2891 -10.113,2.5976 -15.176,3.8867"
           id="path870"
           inkscape:connector-curvature="0" />
        <path
           d="m 37.542,294.87 c 15.285,6.4414 30.023,13.742 45.699,19.305 13.371,4.7226 26.879,9.0195 40.629,12.492 12.922,3.2774 26.246,6.4102 38.133,12.68 5.5156,2.9062 10.844,6.3906 15.227,10.859 4.5,4.5781 7.3086,10.621 13.262,13.547 0.33203,0.15625 0.42187,0.44141 0.38281,0.72656 l -0.0117,0.16407 c -0.16406,0.5664 -0.78906,1.0742 -1.3945,0.78906 -5.8672,-2.7812 -8.2383,-8.5391 -12.582,-12.988 -4.918,-5.0391 -10.695,-9.1094 -17.012,-12.203 -12.395,-6.0898 -25.883,-9.2969 -39.145,-12.891 -14.367,-3.875 -28.598,-8.4609 -42.547,-13.664 -13.02,-4.8398 -27.172,-9.7422 -39.008,-17.266 -0.11719,0.23438 -0.37109,0.42188 -0.625,0.39063 -6.0898,-0.9375 -10.844,-0.67188 -15.664,3.6133 -3.1836,2.8398 -5.6719,5.8828 -8.1602,9.3164 -1.8633,2.5703 -4.168,5.2031 -6.668,1.875 -6.5664,-8.7734 0.625,-24.098 10.27,-27.121 0.16407,-0.0586 0.15625,0.18359 0.0391,0.24219 -6.1094,2.7226 -10.863,9.625 -11.469,16.289 -0.24219,2.625 0.0195,9.3398 3.1719,10.688 2,0.85937 4.5586,-4.2812 5.457,-5.4922 4.8477,-6.5312 13.137,-14.074 21.723,-11.148 0.0117,-0.13671 0.14844,-0.27343 0.29297,-0.20312"
           id="path872"
           inkscape:connector-curvature="0" />
      </g>
    </g>
  </g>
</svg>
