<?xml version="1.0" encoding="UTF-8" standalone="no"?>
<svg
   xmlns:dc="http://purl.org/dc/elements/1.1/"
   xmlns:cc="http://creativecommons.org/ns#"
   xmlns:rdf="http://www.w3.org/1999/02/22-rdf-syntax-ns#"
   xmlns:svg="http://www.w3.org/2000/svg"
   xmlns="http://www.w3.org/2000/svg"
   xmlns:sodipodi="http://sodipodi.sourceforge.net/DTD/sodipodi-0.dtd"
   xmlns:inkscape="http://www.inkscape.org/namespaces/inkscape"
   width="500"
   height="200"
   version="1.1"
   viewBox="0 0 132.29166 52.916666"
   id="svg42"
   sodipodi:docname="ketchup.svg"
   inkscape:version="0.92.3 (2405546, 2018-03-11)">
  <metadata
     id="metadata48">
    <rdf:RDF>
      <cc:Work
         rdf:about="">
        <dc:format>image/svg+xml</dc:format>
        <dc:type
           rdf:resource="http://purl.org/dc/dcmitype/StillImage" />
        <dc:title />
      </cc:Work>
    </rdf:RDF>
  </metadata>
  <defs
     id="defs46" />
  <sodipodi:namedview
     pagecolor="#ffffff"
     bordercolor="#666666"
     borderopacity="1"
     objecttolerance="10"
     gridtolerance="10"
     guidetolerance="10"
     inkscape:pageopacity="0"
     inkscape:pageshadow="2"
     inkscape:window-width="1366"
     inkscape:window-height="731"
     id="namedview44"
     showgrid="false"
     units="px"
     inkscape:zoom="0.36432401"
     inkscape:cx="345.93496"
     inkscape:cy="185.7112"
     inkscape:window-x="0"
     inkscape:window-y="18"
     inkscape:window-maximized="0"
     inkscape:current-layer="svg42" />
  <g
     id="g925"
     transform="matrix(0.57518693,-0.15517073,0.34265217,0.25151291,-40.838352,0.06767067)">
    <path
       sodipodi:nodetypes="ccsccccccsccsccsccccsccscccsssssccssccscssscsscsccsssscccccccccssccsccccccsccccssscccsccsccccccccccccccccccccsccccccccsscccccccccscccccccscccccccccccccccccssscssssccss"
       inkscape:connector-curvature="0"
       id="path875"
       d="m 130.587,231.20553 c -6.44283,-1.6887 -9.59521,-5.70127 -9.60411,-12.22479 -0.009,-6.63938 4.49902,-13.00745 14.54895,-20.55172 3.72649,-2.7974 11.28935,-8.04751 14.1552,-9.82651 1.16417,-0.72266 2.93271,-1.82115 3.93009,-2.44108 3.65261,-2.27035 9.57981,-6.23269 10.15898,-6.7913 0.71059,-0.68537 0.77586,-1.34854 0.13229,-1.34417 -1.17582,0.008 -5.98992,1.69112 -9.49619,3.32013 -7.94481,3.69117 -9.18021,4.392 -17.30343,9.81599 -14.29723,9.54649 -19.89398,12.95544 -27.6384,16.83441 -12.166284,6.09376 -21.086294,8.63821 -30.326284,8.65064 -10.27865,0.0138 -17.46506,-3.30818 -20.5681,-9.50785 -1.35111,-2.69944 -1.72235,-4.52397 -1.56348,-7.68404 0.23843,-4.74259 2.24089,-8.8721 6.28807,-12.96733 3.71834,-3.7625 8.73663,-6.87404 15.47812,-9.59708 17.42397,-7.0379 27.606634,-12.08685 43.251174,-21.44553 9.35183,-5.59434 15.45965,-9.97632 20.32636,-14.58291 2.22966,-2.11048 7.66077,-8.76759 7.3811,-9.04727 -0.2809,-0.28089 -7.78123,2.9026 -13.14717,5.58027 -4.89858,2.44446 -11.31443,5.85787 -17.06563,9.07939 -4.42045,2.47611 -10.82942,6.59066 -26.458334,16.98623 -18.99128,12.63206 -26.9724,17.71443 -34.925,22.24025 -0.43656,0.24844 -1.21047,0.69678 -1.71979,0.99629 -4.54977,2.67557 -16.05949,8.3604 -22.287973,11.00838 -8.817808,3.74881 -17.048698,6.24187 -23.707598,7.1808 -3.8728104,0.54609 -9.5544004,0.41509 -12.0627504,-0.27813 -5.77675,-1.59648 -9.4508296,-5.5264 -10.6460496,-11.38737 -0.39446,-1.93427 -0.39322,-2.27713 0.0166,-4.59007 1.32333,-7.46857 7.7475496,-15.83242 19.1651996,-24.95163 11.4640504,-9.15627 24.3356584,-16.34019 47.5381814,-26.53207 18.99389,-8.34319 28.93577,-13.14785 39.29063,-18.98815 10.828644,-6.10752 17.304354,-10.11607 20.765284,-12.85396 4.56586,-3.61198 6.52567,-5.401588 6.23435,-5.692911 -0.75243,-0.752433 -5.96054,1.454701 -12.97671,5.499391 -4.09254,2.35926 -14.555494,7.51806 -24.077094,11.87128 -16.7749,7.6694 -25.02278,11.73493 -32.01458,15.7806 -11.87041,6.86859 -25.208201,10.73871 -35.321881,10.24909 -5.94984,-0.28805 -10.0456604,-1.84852 -13.2579904,-5.05119 -2.86686,-2.85823 -4.28867,-6.17281 -3.97442,-9.2653 0.28848,-2.83891 1.57812,-4.97195 5.37612,-8.89203 4.93449,-5.09309 8.3717704,-7.6603 21.2082604,-15.83983 7.609408,-4.848778 9.096058,-5.937667 15.902131,-11.647416 5.60959,-4.706003 9.49185,-7.50318 12.51149,-9.014559 2.10873,-1.055452 3.62792,-1.357926 3.65695,-0.728103 0.008,0.181901 0.29536,-0.285427 0.63773,-1.038507 1.88553,-4.147418 7.17928,-6.746965 12.08858,-5.936212 5.08157,0.839203 8.09528,3.758881 8.70698,8.435289 0.58178,4.447749 -0.61442,8.968844 -3.50648,13.252849 -0.45585,0.675249 -2.38734,2.778809 -4.2922,4.674569 l -3.4634,3.44684 4.49792,-1.75419 c 9.48625,-3.699638 15.68779,-6.610941 21.69583,-10.185062 19.247734,-11.450268 32.436114,-13.838883 39.708984,-7.191894 3.50903,3.207057 5.66707,7.984442 5.66707,12.545555 0,7.534831 -5.55834,14.755851 -17.85938,23.201651 -1.45521,0.99914 -2.52677,1.76973 -2.38125,1.71242 0.14552,-0.0573 3.30068,-1.60662 7.01146,-3.44292 11.15308,-5.51914 20.07937,-8.74049 29.63333,-10.69415 3.03827,-0.62129 7.50701,-0.6186 9.92188,0.006 5.20059,1.34504 8.87184,4.8272 10.34379,9.81104 0.66713,2.2588 0.61199,6.48372 -0.12087,9.26042 -1.64492,6.23245 -7.13532,14.09317 -16.23488,23.24386 -2.72787,2.74319 -4.76814,4.91408 -4.53393,4.82421 1.21693,-0.46698 5.28987,-0.94828 8.02468,-0.94828 6.36253,0 11.13381,2.09267 15.76947,6.91644 4.67325,4.86289 7.16335,10.47193 7.4458,16.77196 0.12062,2.69063 0.0556,3.52992 -0.42036,5.42396 -1.55062,6.17077 -4.48606,9.33264 -13.95891,15.03564 -2.74553,1.65291 -6.20679,3.90673 -7.69169,5.00848 l -2.69981,2.00319 0.89891,0.99498 c 1.75664,1.9444 2.53397,4.08086 2.53706,6.97299 0.001,1.16787 -0.17902,2.72459 -0.40059,3.45938 -0.51067,1.69354 -2.07931,3.95008 -3.49823,5.03233 -1.74636,1.33199 -12.45837,5.69528 -17.08468,6.95905 -5.2452,1.43283 -10.16867,1.73272 -13.61539,0.82932 z m 1.08137,-11.94356 c 0.36265,-0.16523 0.72501,-0.47151 0.80525,-0.68062 0.17172,-0.44749 -0.28231,-1.40021 -0.66729,-1.40021 -0.56171,0 -1.56616,-1.31585 -1.56616,-2.05172 0,-0.85407 -0.42014,-1.38786 -1.09235,-1.38786 -1.80696,0 -1.68426,3.78874 0.16993,5.24724 0.82015,0.64513 1.38914,0.71125 2.35062,0.27317 z m 9.88922,-16.95261 c 3.05651,-1.91253 5.66325,-3.97213 5.38258,-4.2528 -0.16646,-0.16646 -0.6605,0.0679 -1.40096,0.66464 -0.62911,0.50698 -2.24516,1.65625 -3.59123,2.55394 -1.34607,0.89768 -2.44739,1.74814 -2.44739,1.88991 0,0.39908 0.15425,0.33492 2.057,-0.85569 z m -75.565864,-4.08693 c 0.63714,-0.5766 0.61095,-1.18126 -0.0897,-2.07203 -0.52798,-0.67122 -0.5536,-0.87374 -0.3223,-2.54725 0.19199,-1.38903 0.16926,-1.97461 -0.0963,-2.48149 -0.19119,-0.36489 -0.4331,-0.66181 -0.5376,-0.65982 -0.88587,0.0169 -1.39516,0.44628 -1.88802,1.59196 -0.98891,2.29879 -0.60319,4.52468 1.0209,5.89126 0.99008,0.8331 1.25634,0.8717 1.91307,0.27737 z M -1.6944354,189.352 c 0.2255,-0.35992 0.0485,-0.69083 -0.92776,-1.73453 -0.66353,-0.70936 -1.3516,-1.72966 -1.52905,-2.26732 -0.22973,-0.69612 -0.51894,-1.02684 -1.00447,-1.14871 -1.03321,-0.25931 -1.51598,0.19981 -1.59974,1.52139 -0.14351,2.26414 1.69751,4.30693 3.74235,4.15249 0.61988,-0.0468 1.15257,-0.25822 1.31867,-0.52332 z M 120.24461,185.07166 c 1.9357,-0.86497 3.28103,-2.83047 2.21688,-3.23882 -0.49274,-0.18908 -2.82995,0.51954 -4.13764,1.25451 -0.80399,0.45187 -1.04826,0.75044 -1.04826,1.28127 0,1.44567 0.85435,1.64798 2.96902,0.70304 z M 17.282775,183.55699 c 1.80342,-0.44512 6.06614,-2.0469 9.24072,-3.47232 11.427301,-5.131 18.647631,-9.03929 31.353131,-16.97114 1.89177,-1.181 10.58794,-6.91181 19.32482,-12.73515 8.73688,-5.82332 17.56603,-11.65943 19.62034,-12.96912 2.0543,-1.30968 3.703804,-2.41386 3.665554,-2.45372 -0.0383,-0.0399 -2.140374,1.04326 -4.671384,2.40694 -10.3116,5.55576 -36.66363,18.62056 -47.59662,23.59742 -16.292903,7.41678 -22.259711,11.19474 -30.207201,19.12611 -3.57629,3.56903 -4.18414,4.28231 -3.52718,4.1389 0.43656,-0.0953 1.69558,-0.39586 2.79782,-0.66792 z m 64.234361,-28.81918 c 1.22407,-0.88671 1.41324,-1.66311 0.5215,-2.14035 -1.11248,-0.59539 -3.36907,1.22909 -2.99152,2.41866 0.239,0.75302 1.19501,0.64531 2.47002,-0.27831 z m 57.943824,-5.60112 c 4.85607,-4.11435 5.79109,-5.24835 4.67923,-5.67502 -0.57555,-0.22086 -1.77833,0.72477 -5.27511,4.14732 -2.9696,2.90657 -3.47219,3.6909 -2.36506,3.6909 0.22428,0 1.5567,-0.97344 2.96094,-2.1632 z m -98.516264,-0.11023 c 0.95606,-0.88605 0.72823,-1.30134 -0.70494,-1.28497 -2.1206,0.0242 -3.989973,1.72956 -2.6921,2.45589 0.58842,0.32929 2.48288,-0.32371 3.39704,-1.17092 z M 10.140975,129.33947 c 0.59499,0 0.1567,-1.0613 -0.7119004,-1.72382 -1.0797,-0.82352 -1.94112,-2.48751 -1.94977,-3.76628 -0.008,-1.18275 -0.6722,-1.12145 -1.07505,0.0992 -0.37958,1.15013 -0.16968,3.01915 0.45847,4.08254 0.46606,0.78896 2.06117,1.63766 2.68293,1.42747 0.19381,-0.0655 0.4617004,-0.11912 0.5953204,-0.11912 z M 160.54428,119.31378 c -0.27972,-1.98544 -0.39468,-2.16401 -1.82069,-2.82797 -1.55531,-0.72417 -2.86851,-0.82096 -3.34521,-0.24658 -0.51562,0.62129 -0.15236,1.10114 1.77301,2.34208 0.98784,0.63668 2.01562,1.4047 2.28395,1.70671 0.80459,0.90555 1.31109,0.46058 1.10894,-0.97424 z M 58.831716,115.25041 c 1.6196,-0.62421 2.03385,-1.08083 1.53062,-1.68718 -0.38512,-0.46404 -1.07887,-0.46078 -2.20644,0.0103 -1.17103,0.48929 -2.02696,1.36242 -1.83246,1.86927 0.20921,0.54521 0.69008,0.50832 2.50828,-0.19243 z m -24.433273,-13.6907 c 0.25269,-0.1447 1.15136,-0.51319 1.99706,-0.81885 1.785053,-0.64519 3.357163,-2.063122 3.357163,-3.027922 0,-0.53699 -0.12893,-0.65161 -0.7276,-0.646829 -1.38568,0.01107 -5.039223,2.079513 -5.633093,3.189161 -0.30403,0.56809 -0.11486,1.56753 0.29669,1.56753 0.13769,0 0.45709,-0.11839 0.70978,-0.26309 z M 125.34538,90.24045 c 0,-0.474157 -1.97474,-1.599799 -2.54496,-1.450682 -0.26423,0.0691 -0.6044,0.275026 -0.75594,0.457618 -0.20908,0.251925 0.06,0.464974 1.11581,0.88345 1.5043,0.596237 2.18509,0.630388 2.18509,0.109614 z"
       style="fill:#d1343a;fill-opacity:1;stroke-width:0.26458332" />
    <path
       inkscape:connector-curvature="0"
       id="path879"
       d="m 37.302774,150.20724 c -0.694574,-0.70365 0.419052,-2.01788 1.989902,-2.34834 2.310617,-0.48608 2.972591,0.42487 1.173784,1.61527 -1.021506,0.676 -2.810777,1.0906 -3.163686,0.73307 z"
       style="opacity:1;fill:#f4d7d7;fill-opacity:1;stroke:none;stroke-width:0.51352274;stroke-linecap:round;stroke-linejoin:round;stroke-miterlimit:4;stroke-dasharray:none;stroke-dashoffset:0;stroke-opacity:1" />
    <path
       inkscape:connector-curvature="0"
       id="path881"
       d="m 33.432782,101.65825 c -0.418237,-0.41823 -0.114572,-1.40172 0.65481,-2.120775 1.017373,-0.950817 3.648543,-2.290352 4.691559,-2.388484 1.096561,-0.103169 1.204042,0.858322 0.214062,1.914919 -0.981176,1.0472 -5.158534,2.99624 -5.560431,2.59434 z"
       style="opacity:1;fill:#f4d7d7;fill-opacity:1;stroke:none;stroke-width:0.51352274;stroke-linecap:round;stroke-linejoin:round;stroke-miterlimit:4;stroke-dasharray:none;stroke-dashoffset:0;stroke-opacity:1" />
    <path
       inkscape:connector-curvature="0"
       id="path883"
       d="m 8.0120404,129.0156 c -1.1923712,-0.62912 -1.7132008,-1.73511 -1.7132008,-3.63801 0,-1.42394 0.4757473,-2.45213 0.9880944,-2.13548 0.162642,0.10051 0.2957115,0.4685 0.2957115,0.81775 0,1.01115 0.64838,2.29506 1.7777512,3.52028 1.1990253,1.30079 1.2759633,1.59858 0.4689105,1.81486 -0.7567401,0.2028 -0.6857101,0.21763 -1.8172668,-0.3794 z"
       style="opacity:1;fill:#f4d7d7;fill-opacity:1;stroke:none;stroke-width:0.51352274;stroke-linecap:round;stroke-linejoin:round;stroke-miterlimit:4;stroke-dasharray:none;stroke-dashoffset:0;stroke-opacity:1" />
    <path
       inkscape:connector-curvature="0"
       id="path885"
       d="m -4.739505,189.41937 c -2.2858412,-1.22591 -2.812907,-5.38257 -0.6505099,-5.1302 0.5680419,0.0663 0.8711644,0.33742 1.3117988,1.17333 0.3151796,0.59791 0.9880441,1.57194 1.495253,2.1645 1.0479007,1.22423 1.1329193,1.62439 0.4255584,2.00296 -0.7356236,0.39369 -1.5844413,0.32446 -2.5821003,-0.21059 z"
       style="opacity:1;fill:#f4d7d7;fill-opacity:1;stroke:none;stroke-width:0.51352274;stroke-linecap:round;stroke-linejoin:round;stroke-miterlimit:4;stroke-dasharray:none;stroke-dashoffset:0;stroke-opacity:1" />
    <path
       inkscape:connector-curvature="0"
       id="path887"
       d="m 64.108295,197.97643 c -1.017522,-0.85618 -1.681962,-2.62198 -1.52168,-4.04398 0.169561,-1.50436 0.920131,-2.99793 1.6807,-3.34447 1.031861,-0.47015 1.389353,0.29909 1.295019,2.78658 -0.0618,1.62946 0.01651,2.21143 0.370144,2.75115 0.575463,0.87827 0.568743,1.54125 -0.02103,2.07499 -0.631327,0.57135 -0.896871,0.53832 -1.803153,-0.22427 z"
       style="opacity:1;fill:#f4d7d7;fill-opacity:1;stroke:none;stroke-width:0.51352274;stroke-linecap:round;stroke-linejoin:round;stroke-miterlimit:4;stroke-dasharray:none;stroke-dashoffset:0;stroke-opacity:1" />
    <path
       inkscape:connector-curvature="0"
       id="path889"
       d="m 79.039705,155.06432 c -0.233444,-0.60835 0.429771,-1.64959 1.418516,-2.22705 0.687872,-0.40174 0.967221,-0.44172 1.47375,-0.21093 0.9452,0.43066 0.781889,1.20595 -0.440576,2.09149 -1.179332,0.85431 -2.201394,0.99875 -2.45169,0.34649 z"
       style="opacity:1;fill:#f4d7d7;fill-opacity:1;stroke:none;stroke-width:0.51352274;stroke-linecap:round;stroke-linejoin:round;stroke-miterlimit:4;stroke-dasharray:none;stroke-dashoffset:0;stroke-opacity:1" />
    <path
       inkscape:connector-curvature="0"
       id="path891"
       d="m 56.367307,115.19568 c 0,-0.58866 1.02698,-1.36177 2.401437,-1.8078 0.854221,-0.2772 1.046387,-0.26389 1.407837,0.0976 0.581002,0.581 0.177205,1.13393 -1.25092,1.71291 -1.577158,0.6394 -2.558354,0.63838 -2.558354,-0.003 z"
       style="opacity:1;fill:#f4d7d7;fill-opacity:1;stroke:none;stroke-width:0.51352274;stroke-linecap:round;stroke-linejoin:round;stroke-miterlimit:4;stroke-dasharray:none;stroke-dashoffset:0;stroke-opacity:1" />
    <path
       inkscape:connector-curvature="0"
       id="path893"
       d="m 159.45165,120.32482 c -0.2795,-0.27813 -1.31698,-1.06039 -2.30551,-1.73837 -1.4129,-0.96902 -1.79733,-1.36924 -1.79733,-1.87114 0,-0.57613 0.11279,-0.64463 1.15543,-0.70176 1.72273,-0.0944 3.3662,0.8264 3.79925,2.12862 0.36811,1.10696 0.32541,2.46946 -0.0816,2.60259 -0.14416,0.0472 -0.49079,-0.14181 -0.77028,-0.41994 z"
       style="opacity:1;fill:#f4d7d7;fill-opacity:1;stroke:none;stroke-width:0.51352274;stroke-linecap:round;stroke-linejoin:round;stroke-miterlimit:4;stroke-dasharray:none;stroke-dashoffset:0;stroke-opacity:1" />
    <path
       inkscape:connector-curvature="0"
       id="path895"
       d="m 124.36674,90.515795 c -0.63827,-0.145018 -1.91964,-0.646367 -2.20145,-0.861338 -0.18287,-0.139501 -0.20795,-0.20383 -0.12915,-0.33124 0.19707,-0.318616 0.58354,-0.527259 0.95845,-0.517429 0.44378,0.01164 1.54931,0.550936 2.02776,0.989184 0.61771,0.565796 0.28279,0.934032 -0.65561,0.720823 z"
       style="opacity:1;fill:#f4d7d7;fill-opacity:1;stroke:none;stroke-width:0.1815577;stroke-linecap:round;stroke-linejoin:round;stroke-miterlimit:4;stroke-dasharray:none;stroke-dashoffset:0;stroke-opacity:1" />
    <path
       inkscape:connector-curvature="0"
       id="path897"
       d="m 64.923913,198.58586 c -0.529749,-0.19242 -1.588493,-1.29735 -1.998681,-2.08587 -0.289081,-0.55571 -0.391642,-1.08264 -0.396068,-2.03487 -0.0097,-2.07643 1.140769,-4.07098 2.348071,-4.07098 0.567851,0 0.8172,0.99386 0.784169,3.12555 -0.02815,1.81632 0.01283,2.12096 0.36104,2.68429 0.62057,1.00395 0.506137,1.83912 -0.308692,2.25299 -0.262506,0.13333 -0.617934,0.19133 -0.789839,0.12889 z"
       style="opacity:1;fill:#f4d7d7;fill-opacity:1;stroke:none;stroke-width:0.3631154;stroke-linecap:round;stroke-linejoin:round;stroke-miterlimit:4;stroke-dasharray:none;stroke-dashoffset:0;stroke-opacity:1" />
    <path
       inkscape:connector-curvature="0"
       id="path899"
       d="m 117.5498,185.29071 c -0.48789,-0.69656 -0.37854,-1.35202 0.31363,-1.87996 1.39975,-1.06764 4.69083,-1.95797 4.93035,-1.3338 0.42374,1.10427 -2.17185,3.26565 -4.25766,3.54542 -0.57517,0.0771 -0.73843,0.0223 -0.98632,-0.33166 z"
       style="opacity:1;fill:#f4d7d7;fill-opacity:1;stroke:none;stroke-width:0.3631154;stroke-linecap:round;stroke-linejoin:round;stroke-miterlimit:4;stroke-dasharray:none;stroke-dashoffset:0;stroke-opacity:1" />
    <path
       inkscape:connector-curvature="0"
       id="path901"
       d="m 79.161945,155.31719 c -0.374285,-0.37429 -0.240318,-1.01483 0.353754,-1.69144 1.003249,-1.14264 2.167172,-1.49917 2.759056,-0.84515 0.435917,0.48168 0.369869,0.98727 -0.198808,1.52185 -1.151244,1.08223 -2.40865,1.52009 -2.914002,1.01474 z"
       style="opacity:1;fill:#f4d7d7;fill-opacity:1;stroke:none;stroke-width:0.3631154;stroke-linecap:round;stroke-linejoin:round;stroke-miterlimit:4;stroke-dasharray:none;stroke-dashoffset:0;stroke-opacity:1" />
    <path
       inkscape:connector-curvature="0"
       id="path903"
       d="m 136.02021,151.09044 c -0.15025,-0.39155 0.67951,-1.35398 3.6549,-4.2393 3.45104,-3.34658 4.8113,-4.13779 4.8113,-2.79853 0,0.33588 -0.383,0.83717 -1.40708,1.84161 -2.41763,2.3713 -6.23594,5.46501 -6.74501,5.46501 -0.11603,0 -0.25738,-0.12095 -0.31411,-0.26879 z"
       style="opacity:1;fill:#f4d7d7;fill-opacity:1;stroke:none;stroke-width:0.3631154;stroke-linecap:round;stroke-linejoin:round;stroke-miterlimit:4;stroke-dasharray:none;stroke-dashoffset:0;stroke-opacity:1" />
    <path
       inkscape:connector-curvature="0"
       id="path905"
       d="m 139.61099,203.1965 c 0.0728,-0.37041 6.79692,-5.18049 7.22769,-5.17032 0.71701,0.0169 -3.5164,3.30965 -6.41068,4.98618 -0.75574,0.43777 -0.87203,0.46397 -0.81701,0.18414 z"
       style="opacity:1;fill:#f4d7d7;fill-opacity:1;stroke:none;stroke-width:0.3631154;stroke-linecap:round;stroke-linejoin:round;stroke-miterlimit:4;stroke-dasharray:none;stroke-dashoffset:0;stroke-opacity:1" />
    <path
       inkscape:connector-curvature="0"
       id="path907"
       d="m 130.23413,219.49251 c -1.23292,-0.29245 -2.31034,-1.99307 -2.33886,-3.69167 -0.0227,-1.35414 0.37899,-1.98576 1.26296,-1.98576 0.55929,0 0.67389,0.0798 0.9036,0.62962 0.14469,0.34629 0.26308,0.80526 0.26308,1.01993 0,0.34493 0.60144,1.01881 1.84392,2.06603 0.51818,0.43673 0.37444,1.18584 -0.30068,1.56706 -0.68614,0.38744 -1.17108,0.5046 -1.63402,0.39479 z"
       style="opacity:1;fill:#f4d7d7;fill-opacity:1;stroke:none;stroke-width:0.3631154;stroke-linecap:round;stroke-linejoin:round;stroke-miterlimit:4;stroke-dasharray:none;stroke-dashoffset:0;stroke-opacity:1" />
  </g>
</svg>
