<?xml version="1.0" encoding="UTF-8" standalone="no"?>
<svg
   xmlns:dc="http://purl.org/dc/elements/1.1/"
   xmlns:cc="http://creativecommons.org/ns#"
   xmlns:rdf="http://www.w3.org/1999/02/22-rdf-syntax-ns#"
   xmlns:svg="http://www.w3.org/2000/svg"
   xmlns="http://www.w3.org/2000/svg"
   xmlns:sodipodi="http://sodipodi.sourceforge.net/DTD/sodipodi-0.dtd"
   xmlns:inkscape="http://www.inkscape.org/namespaces/inkscape"
   width="499.99997"
   height="200"
   version="1.1"
   viewBox="0 0 132.29166 52.91667"
   id="svg2966"
   sodipodi:docname="lettuce.svg"
   inkscape:version="0.92.3 (2405546, 2018-03-11)">
  <metadata
     id="metadata2972">
    <rdf:RDF>
      <cc:Work
         rdf:about="">
        <dc:format>image/svg+xml</dc:format>
        <dc:type
           rdf:resource="http://purl.org/dc/dcmitype/StillImage" />
        <dc:title></dc:title>
      </cc:Work>
    </rdf:RDF>
  </metadata>
  <defs
     id="defs2970" />
  <sodipodi:namedview
     pagecolor="#ffffff"
     bordercolor="#666666"
     borderopacity="1"
     objecttolerance="10"
     gridtolerance="10"
     guidetolerance="10"
     inkscape:pageopacity="0"
     inkscape:pageshadow="2"
     inkscape:window-width="1366"
     inkscape:window-height="731"
     id="namedview2968"
     showgrid="false"
     units="px"
     inkscape:zoom="1.0855842"
     inkscape:cx="206.78346"
     inkscape:cy="18.573129"
     inkscape:window-x="0"
     inkscape:window-y="18"
     inkscape:window-maximized="0"
     inkscape:current-layer="svg2966" />
  <g
     transform="matrix(1.0195809,0,0,1.6262007,-52.52347,-12.266835)"
     id="g2964">
    <g
       transform="matrix(0.35278,0,0,0.35278,-26.64,-67.036)"
       id="g2962">
      <g
         id="g2882"
         style="fill:#de6826">
        <path
           d="m 312.66,247.98 c -0.26953,-0.004 -0.54688,-0.0195 -0.82032,-0.0312 0.21875,-0.24218 0.58985,-0.64062 0.71485,-0.68359 0.42187,-0.13672 0.69531,-0.94531 0.11328,-1.0703 -0.79297,-0.17578 -0.99219,-0.45313 -1.8398,-0.0703 -0.78907,0.35547 -1.4102,0.96875 -1.9297,1.6562 -1.3047,1.7383 -1.8203,3.8555 -1.9258,6 -0.043,0.86329 0.44531,1.5391 1.3438,1.5703 1.25,0.0469 2.8711,0.48828 3.8594,-0.54688 0.46094,-0.48047 0.65235,-1.0742 0.82031,-1.7031 0.26563,-1.0156 0.6211,-1.9961 1.0156,-2.9688 0.41797,-1.0117 -0.25781,-2.1328 -1.3516,-2.1524"
           id="path2872"
           inkscape:connector-curvature="0" />
        <path
           d="m 402.09,272.39 c -3.6758,2.6328 -8.5117,1.9297 -12.285,-0.0781 -1.2461,-0.66016 -2.2383,-1.5195 -3.0195,-2.5039 2.6133,-4.207 3.2227,-9.1523 0.082,-14.281 -0.32031,-0.52343 -0.67968,-1.0156 -1.0547,-1.4844 1.2031,-3.293 3.0117,-6.4141 4.957,-9.2148 1.4258,-2.0547 3.0312,-3.6758 4.7617,-5.1211 0.25,0.95703 1.0273,1.6524 2.2578,1.1992 15.434,-5.6953 12.793,25.41 4.3008,31.484 z m -17.438,-7.3516 c -0.3125,-1.5586 -0.37109,-3.2031 -0.23828,-4.8281 0.58203,1.6328 0.61719,3.2656 0.23828,4.8281 z m -23.406,-4.0469 c 2.6836,-0.0859 11.227,0.35937 8.0977,5.1211 -2.9375,4.4648 -9.418,1.0234 -10.859,-2.7344 -1.5586,-4.0508 0.38672,-13.527 5.3047,-14.734 2.3047,-0.5664 4.7734,-0.59375 7.2383,-0.62109 -5.5508,0.61328 -10.504,4.1133 -11.656,10.773 -0.19922,1.1367 0.72656,2.2305 1.875,2.1953 z m 16.137,13.297 c -4.9688,3.2734 -11.512,4.6328 -17.344,3.4844 -11.004,-2.1641 -10.262,-15.555 -8.6094,-23.988 1.0039,-5.1133 4.0664,-15.078 9.5859,-18.512 -0.0898,0.11719 -0.19531,0.22656 -0.27734,0.35156 -1.7305,2.5508 1.6875,4.6211 3.4766,2.2109 2.9453,-3.957 11.637,-4.2031 15.582,-2.0664 2.1797,1.1797 2.9024,4.8398 0.69922,6.2422 -2.2148,1.4102 -5.4766,1.3906 -8.0039,1.5469 -3.8359,0.23047 -8.8672,-0.50781 -12.074,2.0508 -4.2383,3.375 -6.2656,8.8281 -6.6484,14.105 -0.33203,4.582 1.4297,10.02 6.0156,11.863 3.8008,1.5312 8.0859,1.4375 11.285,-1.4258 2.5859,-2.3164 3.9062,-5.582 2.7461,-8.957 -1.2695,-3.6953 -5.8164,-4.582 -9.5703,-4.7226 2.832,-6.2969 12.172,-4.8438 17.234,-0.40235 -0.40235,1.5078 -0.71094,3.043 -0.89063,4.6172 -0.37891,3.3477 0.26953,6.4805 1.6406,9.1484 -1.3867,1.793 -3.1406,3.3281 -4.8477,4.4531 z m 93.211,-30.688 c -1.625,-5.7812 -7.3359,-9.7539 -12.281,-12.566 -5.0586,-2.875 -26.113,-9.9258 -24.324,2.8438 0.082,0.58203 0.78515,0.39062 0.94922,-0.0274 3.6172,-9.2383 18.637,-0.95703 23.824,2.4492 8.1094,5.3242 11.402,14.344 5.5508,22.789 -4.4414,6.4062 -13.246,9.5156 -20.723,9.9336 -3.1367,0.17578 -6.4531,-0.26172 -9.1719,-1.9258 -0.64063,-0.39453 -1.0977,-0.90625 -1.4883,-1.4609 2.207,-2.6914 4.0117,-5.6914 5.3008,-8.6836 3.7188,-8.6524 0.51953,-18.648 -6.8438,-24.27 -7.6055,-5.8086 -17.477,-0.75 -19.711,7.8359 -0.26953,1.0469 0.88672,1.5039 1.4883,0.64844 4.4766,-6.3164 10.672,-9.875 17.277,-3.8711 5.668,5.1523 6.4961,12.918 3.582,19.613 -0.80468,1.8476 -1.9219,3.6406 -3.25,5.3047 -0.18359,-0.20312 -0.3789,-0.39843 -0.60156,-0.57812 -0.5664,-0.45313 -1.2812,0.0586 -1.6328,0.49609 -0.87109,1.0898 -1.1016,2.2656 -0.93359,3.4219 -2.0312,1.8086 -4.3125,3.3086 -6.6602,4.3125 -1.9453,0.83203 -4.3633,1.3633 -6.3789,0.47656 -2.0547,-0.90625 -2.2812,-3.1836 -3.7188,-4.5781 4.3711,-12.793 1.3984,-31.137 -9.1719,-30.504 0.375,-0.25 0.75,-0.5 1.1328,-0.76172 0.64844,-0.4375 0.73438,-1.625 -0.23828,-1.6719 -5.4141,-0.25782 -10.945,5.5273 -13.98,9.3867 -2.2188,2.8242 -4.0898,5.9024 -5.4883,9.1758 -2.6953,-2.0664 -5.9844,-3.2383 -9.2617,-3.4375 0.91406,-0.043 1.8242,-0.10547 2.7109,-0.23829 3.4492,-0.5 7.0859,-1.7344 8.8008,-5.0078 1.6758,-3.1953 0.71484,-7.7734 -1.8828,-10.184 -4.1953,-3.8906 -12.559,-3.6406 -18.223,-0.69141 -9.1914,-2.6328 -15.863,15.969 -17.156,22.059 -1.3594,6.3984 -1.7812,13.363 0.69922,19.551 2.5352,6.3125 9.207,8.6172 15.527,8.6133 6.4375,-0.008 14.871,-3.6133 20.023,-9.0938 4.2383,4.8984 11.348,7.0391 18.172,3.7383 2.3476,-1.1367 4.2891,-3.1133 5.8359,-5.5898 2.0898,3.6055 8.6875,4.5078 12.406,3.3203 3.1992,-1.0195 6.125,-2.8516 8.6992,-5.1524 0.5586,0.65625 1.1875,1.2422 1.8164,1.7227 3.4414,2.6094 8.4883,2.8672 12.609,2.6094 9.9727,-0.6211 20.762,-5.9883 25.43,-15.125 2.3438,-4.5859 2.6641,-9.9531 1.2852,-14.883"
           id="path2874"
           inkscape:connector-curvature="0" />
        <path
           d="m 397.18,259.02 c -0.34375,1.375 -1.2969,3.1523 -2.7188,3.6406 -1.6211,0.55469 -0.0703,-4.5938 0.0859,-5.0156 0.34375,-0.9336 0.75,-1.8398 1.168,-2.7422 1.0586,1.2188 1.9609,2.1133 1.4648,4.1172 z m 0.35547,-8.0508 c 0.0195,-0.0898 0.0547,-0.17578 0.0703,-0.26953 0.1836,-1.0547 -1.1445,-1.5234 -1.8164,-0.80078 -2.7852,2.9961 -4.8789,6.957 -5.5234,11.016 -0.50391,3.1602 1.3516,6.082 4.7227,5.4453 5.8555,-1.1055 9.2891,-13.5 2.5469,-15.391"
           id="path2876"
           inkscape:connector-curvature="0" />
        <path
           d="m 423,253.83 c 0.0781,-0.21875 -0.0977,0.0586 -0.0312,0.0156 -0.46484,0.32422 -1.125,0.34766 -1.7656,0.27734 0.0156,-0.6914 0.0508,-1.3789 0.16406,-2.0664 0.0547,-0.3711 0.17969,-0.73047 0.33984,-1.082 0.72266,0.35937 1.3242,1.375 1.4024,2.4726 0,-0.0117 -0.082,0.30469 -0.10938,0.38282 z m 0.62891,-6.7344 c -0.004,-0.0117 -0.008,-0.0273 -0.0156,-0.043 -0.3125,-0.86328 -1.3359,-0.69922 -1.8906,-0.23437 -0.1211,0.10156 -0.21875,0.20703 -0.33203,0.30859 -0.20704,0.13672 -0.38282,0.30078 -0.52344,0.48438 -2.2344,2.2461 -3.0352,4.8984 -3.1094,8.1758 -0.0156,0.76172 0.27735,1.5352 1.0977,1.7461 3.3945,0.86719 7.168,0.0117 7.9141,-3.8906 0.48828,-2.5391 -0.82031,-5.3945 -3.1406,-6.5469"
           id="path2878"
           inkscape:connector-curvature="0" />
        <path
           d="m 449.86,252.02 c -0.27344,-2.0469 -0.082,-3.8906 0.69531,-5.8047 0.22265,0.0781 0.44922,0.16407 0.68359,0.28516 0.75391,0.37891 1.207,1.0234 1.168,1.8711 -0.0664,1.5117 -1.2344,2.7891 -2.5469,3.6484 z m -1.332,-9.4375 c -0.5039,0.39063 -0.74609,1.3125 -0.49218,1.918 -2.1953,2.9688 -2.1289,7.168 -1.3477,10.777 0.20313,0.94532 1.0547,1.6562 2.0586,1.3086 3.7266,-1.2969 6.8867,-4.3164 7.4766,-8.3359 0.55859,-3.8281 -4.2148,-8.3711 -7.6953,-5.668"
           id="path2880"
           inkscape:connector-curvature="0" />
      </g>
      <path
         d="m 588.47,280.86 c 2.6406,5.8164 -1.293,12.512 -4.6641,16.496 -4.6836,5.5352 -9.5078,6.1602 -14.078,0.53516 -7.3242,-9.0156 -14.086,-8.5078 -22.246,-2.3203 -4.6875,3.543 -9.2422,6.5625 -14.648,4.6719 -0.37109,-0.13281 -0.625,-0.71485 -0.5625,-1.2344 1.25,-9.1953 1.4531,-22.91 -7.4726,-23.445 -5.7774,-0.34375 -11.078,2.8555 -16.379,5.6094 l -0.0195,-0.1211 c 5.6484,-5.3086 14.055,-10.012 20.773,-6.1133 2.6406,1.5312 4.1367,4.9531 4.9297,8.6289 0.48828,2.1992 0.625,4.6992 0.5625,6.9922 -0.082,3.375 -1.6328,7.9414 1.8359,7.7774 8.3711,-0.41406 14.617,-11.961 23.277,-10.426 5.6484,1.0117 8.3477,5.6836 12.824,9.8008 4.9062,4.5078 15.359,-4.3711 14.883,-12.539 -2.1094,-4.6406 -3.6914,-7.4219 -7.5195,-9.8477 -2.6172,-1.668 -5.9141,-3.2891 -7.7344,-6.6367 -1.707,-3.1367 -2.6172,-10.621 -0.77344,-14.297 -4.4297,1.875 -8.8203,3.2148 -13.102,6.3555 -3.2852,2.3945 -6.6797,6.9297 -10.121,8.6562 l -0.45704,-0.11718 v -0.14844 c 0.9961,-5.4609 7.8516,-9.7461 11.023,-11.918 1.3438,-0.92187 2.8711,-2.0234 4.4844,-3.0195 0.97265,0.17969 1.9609,0.28125 2.9336,0.28125 0.64844,0 0.99609,-1.5156 0.39453,-1.9609 l -0.15234,-0.10547 c 2.6836,-1.2656 5.4297,-1.9062 7.8789,-0.89453 0.28516,0.1211 0.37891,0.46485 0.34766,0.78906 h 0.14844 l 0.0117,0.0742 -0.26563,0.32813 c -0.082,0.19531 -0.21094,0.37109 -0.37109,0.44531 l -0.008,0.0156 c -2.8438,3.8828 -3.0781,11.262 0.37109,14.801 2.0117,2.0703 4.3008,3.3203 6.5586,4.7773 2.6094,1.668 6.0742,4.2109 7.3359,8.1094"
         id="path2884"
         inkscape:connector-curvature="0"
         style="fill:#28703f" />
      <path
         d="m 587.48,285.18 c 0.47656,8.168 -9.9766,17.047 -14.883,12.539 -4.4766,-4.1172 -7.1758,-8.7891 -12.824,-9.8008 -8.6602,-1.5352 -14.906,10.012 -23.277,10.426 -3.4688,0.16406 -1.918,-4.4024 -1.8359,-7.7774 0.0625,-2.293 -0.0742,-4.793 -0.5625,-6.9922 -0.79297,-3.6758 -2.2891,-7.0977 -4.9297,-8.6289 -6.7188,-3.8984 -15.125,0.80469 -20.773,6.1133 l 0.0195,0.1211 -0.44141,0.0859 c -0.20312,-1.9492 -0.38281,-3.9258 -0.79687,-5.8594 -0.55078,-2.6172 -4.1953,-5.4297 -5.8086,-6.9336 4.7812,0.47657 9.2031,-0.40234 13.918,-1.3828 6.0742,-1.2656 10.48,0.96485 16.207,3.0781 0.73047,0.28515 1.1641,-1.1719 0.625,-1.8125 -8.5117,-10.117 -21.199,-1.9219 -30.758,-0.375 -0.11719,0.0156 -0.18359,0.19531 -0.16015,0.32812 l -0.043,-0.0273 c -3.2422,-3.1836 -5.3945,-6.7539 -7.9805,-10.848 -0.39453,-0.60937 -0.79688,-1.1875 -1.2188,-1.7539 l 0.19922,-0.29688 c 6.7188,0.59375 12.285,1.6641 18.59,-2.4414 2.6406,-1.7109 5.3359,-3.8672 8.1758,-4.9062 0.3711,0.22266 0.77344,0.41407 1.1953,0.57813 0.58594,0.22266 1.0312,-0.44531 1.0938,-1.1602 0.80469,-0.10547 1.6211,-0.0742 2.457,0.0899 3.043,0.60937 5.4492,5.1328 7.25,8.1953 3.1484,5.3711 6.2773,11.754 11.227,14.074 7.2617,3.4219 16.715,5.0273 24.281,3.0664 0.42578,-0.10546 0.59765,-1.25 0.0977,-1.3867 -6.0117,-1.6484 -12.285,-0.69922 -18.293,-2.082 3.4414,-1.7266 6.8359,-6.2617 10.121,-8.6562 4.2812,-3.1406 8.6719,-4.4805 13.102,-6.3555 -1.8438,3.6758 -0.93359,11.16 0.77344,14.297 1.8203,3.3477 5.1172,4.9688 7.7344,6.6367 3.8281,2.4258 5.4102,5.207 7.5195,9.8477"
         id="path2886"
         inkscape:connector-curvature="0"
         style="fill:#3ab84c" />
      <g
         id="g2894"
         style="fill:#28703f">
        <path
           d="m 566.61,252.52 c 0.60156,0.44531 0.25391,1.9609 -0.39453,1.9609 -0.97266,0 -1.9609,-0.10156 -2.9336,-0.28125 1.0273,-0.65625 2.0976,-1.2812 3.1758,-1.7852 l 0.15234,0.10547"
           id="path2888"
           inkscape:connector-curvature="0" />
        <path
           d="m 566.53,271.49 c 0.5,0.13671 0.32813,1.2812 -0.0977,1.3867 -7.5664,1.9609 -17.02,0.35547 -24.281,-3.0664 -4.9492,-2.3203 -8.0781,-8.7031 -11.227,-14.074 -1.8008,-3.0625 -4.207,-7.5859 -7.25,-8.1953 -0.83594,-0.16407 -1.6524,-0.19532 -2.457,-0.0899 0.0508,-0.41797 -0.0352,-0.86328 -0.28906,-1.1445 -0.23047,-0.26953 -0.45312,-0.52344 -0.67578,-0.80469 3.0742,-0.74218 5.8828,0.14844 8.7773,3.5703 4.2617,5.0156 6.5391,12.973 11.562,16.824 2.3203,1.7852 4.7266,2.7812 7.1875,3.3945 l 0.45704,0.11718 c 6.0078,1.3828 12.281,0.4336 18.293,2.082"
           id="path2890"
           inkscape:connector-curvature="0" />
        <path
           d="m 566.46,252.42 c -1.0781,0.50391 -2.1484,1.1289 -3.1758,1.7852 -9.1289,-1.7266 -18.191,-10.906 -26.109,-16.352 -6.6445,-4.5664 -12.484,-6.6914 -19.949,-5.8164 -2.3203,0.26953 -4.6094,0.59766 -6.9102,0.80469 -1.1094,-0.90625 -2.3281,-1.6055 -3.7188,-2.0078 9.5938,-2.7812 19.492,-4.7461 28.641,1.3242 5.5547,3.6758 10.906,7.8984 16.449,11.59 4.8125,3.2109 10.078,5.1914 14.773,8.6719"
           id="path2892"
           inkscape:connector-curvature="0" />
      </g>
      <path
         d="m 563.29,254.2 c -1.6133,0.99609 -3.1406,2.0977 -4.4844,3.0195 -3.1719,2.1719 -10.027,6.457 -11.023,11.918 v 0.14844 c -2.4609,-0.61328 -4.8672,-1.6094 -7.1875,-3.3945 -5.0234,-3.8516 -7.3008,-11.809 -11.562,-16.824 -2.8945,-3.4219 -5.7031,-4.3125 -8.7773,-3.5703 -3.5391,-4.2852 -6.1484,-9.6094 -9.9336,-12.66 2.3008,-0.20703 4.5898,-0.53516 6.9102,-0.80469 7.4648,-0.875 13.305,1.25 19.949,5.8164 7.918,5.4453 16.98,14.625 26.109,16.352"
         id="path2896"
         inkscape:connector-curvature="0"
         style="fill:#3ab84c" />
      <g
         id="g2908"
         style="fill:#28703f">
        <path
           d="m 532.12,268.35 c 0.53907,0.64062 0.10547,2.0976 -0.625,1.8125 -5.7266,-2.1133 -10.133,-4.3438 -16.207,-3.0781 -4.7148,0.98047 -9.1367,1.8594 -13.918,1.3828 l -0.16796,-0.16406 c -0.0234,-0.13281 0.043,-0.3125 0.16015,-0.32812 9.5586,-1.5469 22.246,-9.7422 30.758,0.375"
           id="path2898"
           inkscape:connector-curvature="0" />
        <path
           d="m 520.93,246.3 c 0.25391,0.28125 0.33985,0.72656 0.28906,1.1445 -0.77343,0.0899 -1.5391,0.29688 -2.2891,0.58203 -0.61719,-0.39062 -1.168,-0.85156 -1.6758,-1.3867 1.0273,-0.53516 2.0352,-0.92188 3,-1.1445 0.22266,0.28125 0.44531,0.53516 0.67578,0.80469"
           id="path2900"
           inkscape:connector-curvature="0" />
        <path
           d="m 521.22,247.45 c -0.0625,0.71485 -0.50781,1.3828 -1.0938,1.1602 -0.42187,-0.16406 -0.82421,-0.35547 -1.1953,-0.57813 0.75,-0.28515 1.5156,-0.49218 2.2891,-0.58203"
           id="path2902"
           inkscape:connector-curvature="0" />
        <path
           d="m 520.25,245.5 c -0.96484,0.22266 -1.9727,0.60938 -3,1.1445 -1.6523,-1.7109 -2.8086,-4.1211 -4.3359,-6.5586 -2.7461,-4.3594 -6.2969,-5.8476 -10.102,-6.0859 l 0.0312,-1.0273 c 2.5156,0.21094 4.9922,0.10547 7.4727,-0.13281 3.7852,3.0508 6.3945,8.375 9.9336,12.66"
           id="path2904"
           inkscape:connector-curvature="0" />
        <path
           d="m 517.25,246.64 c 0.50781,0.53515 1.0586,0.99609 1.6758,1.3867 -2.8398,1.0391 -5.5352,3.1953 -8.1758,4.9062 -6.3047,4.1055 -11.871,3.0352 -18.59,2.4414 v -0.0898 c 4.6211,-0.10547 9.6133,0.66797 14.055,-1.5781 3.3828,-1.7226 6.4024,-4.3867 9.7109,-6.3516 0.44531,-0.26953 0.89063,-0.50781 1.3242,-0.71484"
           id="path2906"
           inkscape:connector-curvature="0" />
      </g>
      <path
         d="m 517.25,246.64 c -0.43359,0.20703 -0.87891,0.44531 -1.3242,0.71484 -3.3086,1.9648 -6.3281,4.6289 -9.7109,6.3516 -4.4414,2.2461 -9.4336,1.4727 -14.055,1.5781 v 0.0898 l -0.19922,0.29688 c -1.2852,-1.6797 -2.7656,-3.0508 -4.4531,-3.6172 -4.8438,-8.3438 -13.961,-8.7734 -20.816,-4.9531 -0.0234,-0.33984 -0.14844,-0.64062 -0.42578,-0.71484 -2.7344,-0.78516 -5.4883,-0.80078 -8.2461,-1.293 -3.3281,-0.59375 -5.1719,-4.7891 -7.5234,-7.6016 -2.9805,-3.5703 -5.6211,-3.0508 -9.2852,-1.8438 -2.4297,0.80469 -4.793,1.8438 -7.168,2.8711 -8.2656,-2.6484 -16.832,-5.5352 -24.727,-10.34 2.4141,-0.50781 4.875,-1.043 7.3125,-1.7383 8.9375,0.62109 17.957,-2.4727 26.754,-4.2109 4.9062,-0.96875 9.8359,-1.3711 14.785,-1.1172 6.7734,0.32813 12.52,3.5274 18.453,7.9141 7.3047,5.4141 14.957,5.668 23.035,5.0274 1.0664,-0.0899 2.1172,-0.11719 3.1562,-0.0586 3.8047,0.23829 7.3555,1.7266 10.102,6.0859 1.5274,2.4375 2.6836,4.8477 4.3359,6.5586"
         id="path2910"
         inkscape:connector-curvature="0"
         style="fill:#3ab84c" />
      <path
         d="m 271.81,289 c -2.6094,-3.3203 -5.5039,-7.5273 -8.6602,-10.918 -0.32813,0.1914 -0.66797,0.35546 -1.0078,0.51953 -0.53125,3.7773 -1.3789,7.4688 -2.8281,10.738 -0.26562,0.59765 -0.90234,0.26953 -0.73437,-0.42969 0.8164,-3.1836 1.4726,-6.4414 2.1953,-9.6562 -0.48828,0.23828 -0.95313,0.47656 -1.3984,0.78906 -1.918,1.3242 -3.668,2.9453 -5.0352,5.3125 -0.33984,0.59375 -0.8789,0.13282 -0.625,-0.55078 1.1016,-3.0352 2.9141,-5.1758 5.0977,-6.6367 0.80469,-0.53515 1.7188,-1.2188 2.6602,-1.7695 -2.7656,-2.5898 -5.7227,-4.375 -8.8398,-4.2539 -2.4258,0.0898 -5.4375,0.89062 -8.5742,2.3047 1.707,7.9883 1.2188,22.375 9.625,21.438 6.2852,-0.71484 11.953,-5.5469 18.125,-6.8867 z m 29.156,-43.844 c 2.207,-0.63671 4.5703,-0.85937 6.9766,-0.77343 -1.0938,-0.80078 -2.1211,-1.5742 -3.0625,-2.2578 -7.6641,-5.5508 -17.266,-13.438 -26.086,-8.0664 -2.0469,1.25 -14.605,22.957 -19.555,24.488 6.582,0.50391 13.258,1.3398 19.566,-1.043 7.7695,-2.9297 14.254,-10.098 22.16,-12.348 z m 107.02,4.2578 0.13672,-0.0312 c -2.3203,-0.87891 -4.6094,-1.9492 -6.8047,-3.1524 -3.7109,-2.0117 -6.4648,-6.207 -9.625,-9.3906 -1.8555,-1.8711 -5.7773,-6.082 -8.2773,-4.5352 -1.3984,0.87891 -1.8984,3.2422 -2.957,4.625 -2.0352,2.6641 -4.4609,3.6172 -7.2188,3.6172 -2.1602,0.0156 -4.3242,-1.3984 -6.3711,-2.2188 -2.9453,-1.1875 -6.0508,-1.6055 -9.1133,-1.2188 -5.3984,0.68359 -10.539,2.7656 -15.648,5.2227 -5.4258,2.6172 -11.137,5.875 -16.938,6.8555 0.0234,0.32813 -0.0937,0.69922 -0.32812,0.86329 6.6992,3.9453 13.355,7.8711 20.488,10.117 0.78516,0.25391 1.582,0.47657 2.3672,0.67188 6.8125,1.7852 13.691,2.168 20.551,3.5234 -0.0117,-0.23829 0.0937,-0.50391 0.28515,-0.53516 7.3789,-1.2656 14.406,-4.3906 21.434,-7.5273 l 0.73047,-0.32813 c 5.6914,-2.5273 11.383,-5.043 17.289,-6.5586 z m 56.113,-0.58203 c -3.7109,0.68359 -8.1406,0.58203 -10.938,-2.8125 -1.8789,-2.2891 -4.6641,-8.0039 -7.2617,-7.8672 -2.418,0.13281 -4.7188,1.0117 -7.0195,1.9766 -8.1602,3.4375 -17.562,7.3789 -26.465,7.3203 0.625,0.32813 1.2305,0.6836 1.8125,1.1133 7.5039,-0.10156 13.641,3.4531 20.848,8.957 4.7812,3.6445 10.496,7.5586 16.039,4.6289 5.3203,-2.8125 8.2461,-9.5078 12.984,-13.316 z m 39.715,38.25 c -4.5234,-1.8008 -8.8086,-5.9844 -13.121,-8.3477 -5.4062,-2.9609 -11.16,-4.4922 -16.844,-1.875 -3.3281,1.5312 -6.6758,4.0625 -10.078,6.5156 0.45312,0.26954 0.91015,0.58204 1.3359,0.9375 1.6641,1.457 2.1094,4.7148 3.5391,6.5 2.418,3.0352 6.5508,2.3984 9.4844,1.2656 5.0898,-1.9492 8.2266,-2.4844 12.879,1.4414 6.4023,5.4023 9.4375,-0.69532 12.805,-6.4375 z m 6.043,2.9453 c 0.58203,1.293 -0.71093,3.3906 -1.4648,2.0078 -0.82422,-1.5195 -1.7891,-2.8281 -2.7539,-4.1211 -1.3438,3.7773 -3.4883,7.6016 -6.0742,9.0898 -1.9375,1.0977 -4.9375,2.3945 -7.0078,1.1758 -2.9766,-1.7734 -5.7852,-5.5078 -9.2305,-4.8047 -4.25,0.85938 -9.2226,4.2539 -13.473,1.9297 -1.8867,-1.0391 -3,-2.7656 -4.0469,-5.1758 -1.2422,-2.8555 -2.832,-4.4023 -4.6328,-4.9102 -4.7266,3.2734 -9.5586,5.9375 -14.594,5.2969 l 0.0391,-1.0117 c 3.1172,-0.63672 6.0195,-2.125 8.8438,-3.9414 1.1211,-1.7539 2.6367,-2.707 4.2383,-2.9609 6.043,-4.4766 11.934,-9.4922 18.898,-10.055 5.0234,-0.41797 9.5703,1.1602 14.172,3.9414 3.4219,2.082 7.3555,4.3594 10.77,7.1406 0.22265,-0.58203 0.6875,-0.98047 1.1016,-0.56641 0.33984,0.35938 0.65625,0.7461 0.98437,1.1172 0.13672,-0.19531 0.26563,-0.37109 0.39454,-0.55078 l 0.19921,-0.16406 c -0.0195,-0.17969 -0.043,-0.33985 -0.0508,-0.53516 -0.48828,-7.3633 -3.7226,-9.5664 -7.5156,-13.434 -2.1953,-2.2461 -3.4766,-4.4024 -5.0898,-7.1406 -0.23046,-0.38672 -0.46484,-0.78906 -0.71875,-1.207 -1.6016,-2.6914 -3.5312,-4.6562 -5.375,-6.8555 -0.21093,0.14844 -0.45703,0.19141 -0.69921,0.0274 -6.4024,-4.1641 -12.043,-8.4024 -19.312,-4.0312 -4.5586,2.7695 -7.4297,8.5703 -11.543,12.258 -7.0039,6.3086 -14.16,4.3594 -21.133,-0.96484 -0.76562,-0.59375 -1.5391,-1.2188 -2.3242,-1.8438 5.2578,7.5117 9.8984,14.117 18,14.34 7.0273,0.19141 13.48,-4.4023 20.012,-8.0625 2.0352,-2.2461 3.5898,-5.3125 5.8164,-7.2305 1.7383,-1.5039 4.5156,-3.1836 6.3828,-1.3672 0.53907,0.53516 0.20313,1.5586 -0.29687,1.8438 -1.25,0.71485 -2.6094,0.44532 -3.8672,1.1602 -1.0742,0.60937 -2.0469,1.4141 -3.0234,2.2773 -0.625,0.55078 -1.2383,1.0977 -1.8633,1.6484 5.5312,-2.7227 11.18,-4.1484 17.328,-0.875 0.60547,0.32422 0.3164,1.5156 -0.25391,1.5898 -4.1953,0.51954 -8.375,-0.89062 -12.582,0.0586 -4.4922,1.0117 -8.3633,3.4102 -12.41,6.2344 -5.4297,3.7774 -11.27,6.2031 -17.406,4.9258 -5.8633,-1.207 -9.7852,-4.4062 -13.844,-10.414 -2.3945,-3.5586 -4.7344,-7.4844 -7.5156,-10.355 -1.9688,-1.3242 -3.9961,-2.4258 -6.1133,-2.9141 -6.4961,-1.5352 -13.188,0.0117 -19.492,2.3945 -10.559,3.9727 -21.18,10.68 -32.32,9.7266 0.17968,0.44922 -0.16797,1.2812 -0.5586,1.3555 -3.7852,0.66797 -7.6562,0.73047 -11.523,0.29688 3.2969,2.457 6.6055,4.8945 10.102,6.6055 6.0078,2.9609 10.895,2.2305 17.074,1.4883 0.54297,-0.0586 0.46875,0.99609 0.1289,1.293 -9.9844,8.7773 -22.547,-2.6016 -32,-10.113 -4.0508,-0.83594 -8.0781,-2.1289 -12,-3.7656 h -0.0312 c -9.6016,-1.1289 -22.988,-11.945 -32.359,-4.625 0.92187,0.0273 1.8555,0.22266 2.8203,0.65234 0.31641,0.14844 0.13672,0.7461 -0.12891,0.80469 -4.918,1.0274 -8.3086,3.6133 -11.445,7.75 0.008,2.9024 -0.74219,5.9648 -1.5508,8.4336 -0.92187,2.8281 -2.7773,8.4062 -5.5312,7.9453 -0.45703,-0.0742 -0.33984,-0.95313 -0.12891,-1.2656 1.9414,-2.9141 3.6992,-4.8945 4.793,-8.8047 0.40235,-1.4141 0.84766,-2.9922 1.1875,-4.6133 -0.71093,1.043 -1.4102,2.1445 -2.1328,3.3477 -2.7109,4.5508 -5.5625,10.609 -9.8047,12.453 -0.6875,0.29687 -0.83593,-0.92188 -0.45312,-1.4727 3.4336,-5.0586 6.6875,-10.801 10.25,-15.816 -5.9062,4.4648 -12.977,8.793 -19.281,6.3672 -0.72266,-0.28125 -0.28516,-1.5898 0.27344,-1.7227 4.168,-0.89453 8.2148,-0.71484 12.273,-2.8125 3.2148,-1.668 6.2891,-3.7344 9.4883,-5.4453 2.3438,-2.8281 5.0156,-5.1484 7.9414,-5.6992 3.1055,-5.2812 10.375,-4.2109 14.539,-3.5976 1.7812,0.25 3.6367,0.57812 5.5234,0.99609 -6.5078,-3.8242 -12.953,-7.2617 -20.223,-6.9922 -7.8555,0.28125 -13.609,5.1016 -20.5,9.625 -14.109,9.2539 -29.605,-0.84765 -43.785,6.3828 -5.5547,2.8242 -12.5,5.9336 -15.984,13.223 -2.332,4.8672 -2.7656,9.8945 -2.5234,15.117 1.0703,-3.0508 2.7969,-5.8789 4.2383,-7.6641 5.25,-6.5274 11.758,-11.676 18.465,-14.605 8.2578,-3.6016 14.605,0.11719 20.965,7.8828 6.9336,8.4648 13.219,17.258 21.973,21.422 l 0.67969,0.34375 c 1.0273,0.53515 0.59375,2.5117 -0.26563,2.9453 -5.3945,2.7226 -11.625,-5.6992 -15.707,-10.906 -7.2812,1.3398 -17.234,10.859 -24.316,6.1875 -5.9688,-3.9258 -5.9258,-14.695 -6.5274,-22.746 -9.4453,4.6289 -19.527,14.535 -18.062,26.734 0.0859,0.74609 -0.57422,1.4297 -0.98437,0.83594 -0.14844,-0.22657 -0.26563,-0.44922 -0.39453,-0.67188 -0.17969,0 -0.34766,-0.10547 -0.4336,-0.44531 -3.7188,-13.82 -0.72265,-27.566 8.6602,-34.707 5.9883,-4.5391 12.719,-7.9883 19.566,-8.375 2.2461,-0.13672 4.5352,-0.0469 6.8359,0.11719 -0.29687,-0.19141 -0.53125,-0.51954 -0.67969,-1.0703 l 0.0742,-0.22265 c 2.832,-1.4727 4.6641,-2.3789 6.9219,-5.5781 2.1836,-3.1094 4.1875,-6.4297 6.1719,-9.7773 3.5156,-5.9336 6.1758,-11.051 12.039,-11.973 5.3945,-0.83203 10.441,1.2344 15.273,4.2383 -0.33984,0.26953 -0.66797,0.55078 -0.98437,0.86328 -0.4336,0.4336 -0.21094,1.5625 0.33984,1.1172 0.60156,-0.49219 1.25,-0.86328 1.9375,-1.1602 0.9961,0.65234 1.9844,1.3516 2.9688,2.0508 4.0703,2.918 8.1211,6.2031 12.445,8.375 0.25391,0.12109 0.51563,0.22656 0.77344,0.34375 0.91016,0.26562 1.8125,0.57812 2.7031,0.92187 0.9414,0.26563 1.8867,0.49219 2.8164,0.73047 9.4024,-2.2344 17.84,-7.3516 27.113,-10.949 4.8672,-1.8906 9.8398,-3.1406 14.906,-2.5469 4.4414,0.52343 10.852,6.1172 14.977,2.1133 1.7266,-1.6797 2.8516,-6.2305 5.1406,-6.7969 2.6484,-0.64062 5.3828,0.60938 7.6289,2.6328 4.3476,3.9102 7.8555,9.5352 12.805,12.051 1.4531,0.72656 2.9883,1.2617 4.5273,1.8008 6.1602,-1.6406 12.422,-2.5 18.582,-4.2852 0.82813,-0.23828 1.6406,-0.50781 2.4492,-0.82031 2.0234,0.37109 4.0391,0.3125 5.9141,-0.46094 0.34766,-0.13281 0.53906,-1.0547 0.082,-1.2031 -0.33593,-0.10547 -0.67578,-0.22266 -1.0273,-0.32813 2.375,-1.0273 4.7383,-2.0664 7.168,-2.8711 3.6641,-1.207 6.3047,-1.7266 9.2852,1.8438 2.3516,2.8125 4.1953,7.0078 7.5234,7.6016 2.7578,0.49219 5.5117,0.50781 8.2461,1.293 0.27734,0.0742 0.40234,0.375 0.42578,0.71484 6.8555,-3.8203 15.973,-3.3906 20.816,4.9531 1.6875,0.5664 3.168,1.9375 4.4531,3.6172 0.42187,0.5664 0.82422,1.1445 1.2188,1.7539 2.5859,4.0938 4.7383,7.6641 7.9805,10.848 l 0.043,0.0273 0.16796,0.16406 c 1.6133,1.5039 5.2578,4.3164 5.8086,6.9336 0.41406,1.9336 0.59375,3.9102 0.79687,5.8594 0.29297,3.0234 0.625,5.9961 1.875,8.7656"
         id="path2912"
         inkscape:connector-curvature="0"
         style="fill:#28703f" />
      <path
         d="m 510.32,232.84 c -2.4805,0.23828 -4.957,0.34375 -7.4727,0.13281 -0.46484,-0.043 -0.19922,-0.98047 0.11719,-1.0703 1.207,-0.35547 2.418,-0.73047 3.6367,-1.0703 1.3906,0.40234 2.6094,1.1016 3.7188,2.0078"
         id="path2914"
         inkscape:connector-curvature="0"
         style="fill:#28703f" />
      <path
         d="m 506.22,283.46 -0.19921,0.16406 c -0.12891,0.17969 -0.25782,0.35547 -0.39454,0.55078 -0.32812,-0.37109 -0.64453,-0.75781 -0.98437,-1.1172 -0.41406,-0.41406 -0.87891,-0.0156 -1.1016,0.56641 -3.4141,-2.7812 -7.3477,-5.0586 -10.77,-7.1406 -4.6016,-2.7812 -9.1484,-4.3594 -14.172,-3.9414 -6.9648,0.5625 -12.855,5.5781 -18.898,10.055 -1.6016,0.2539 -3.1172,1.207 -4.2383,2.9609 -2.8242,1.8164 -5.7266,3.3047 -8.8438,3.9414 -0.0312,-0.51953 -0.23047,-0.96484 -0.6875,-1.0703 -4.2695,-0.98047 -8.0781,-1.8906 -11.977,-4.6836 -2.9258,-2.1016 -5.6289,-4.793 -8.5234,-6.9805 -4.4531,-3.3594 -9.0508,-5.0547 -14.078,-5.3242 -6.9414,-0.3711 -20.168,2.4688 -18.781,15.559 -10.875,5.5195 -22.691,3.0664 -33.633,-1.1289 -5.6484,-2.1875 -11.117,-5.1914 -16.523,-8.375 -4.3672,-2.5898 -8.6055,-6.3672 -13.035,-8.8828 0.19141,-0.44531 0.16797,-1.1289 -0.24609,-1.2188 -8.4375,-1.9492 -17.297,2.543 -23.934,9.832 -2.2891,2.5156 -4.375,5.2383 -6.4023,8.0781 -0.30469,-0.10156 -0.74219,0.26953 -0.78516,0.78906 l -0.008,0.32813 c -1.1992,1.7109 -2.3867,3.4375 -3.5742,5.207 -1.3359,2.0078 -4.1445,4.6562 -5.332,7.5117 -8.7539,-4.1641 -15.039,-12.957 -21.973,-21.422 -6.3594,-7.7656 -12.707,-11.484 -20.965,-7.8828 -6.707,2.9297 -13.215,8.0781 -18.465,14.605 -1.4414,1.7852 -3.168,4.6133 -4.2383,7.6641 -0.24219,-5.2227 0.1914,-10.25 2.5234,-15.117 3.4844,-7.2891 10.43,-10.398 15.984,-13.223 14.18,-7.2305 29.676,2.8711 43.785,-6.3828 6.8906,-4.5234 12.645,-9.3438 20.5,-9.625 7.2695,-0.26953 13.715,3.168 20.223,6.9922 -1.8867,-0.41797 -3.7422,-0.74609 -5.5234,-0.99609 -4.1641,-0.61328 -11.434,-1.6836 -14.539,3.5976 -2.9258,0.55078 -5.5977,2.8711 -7.9414,5.6992 -3.1992,1.7109 -6.2734,3.7774 -9.4883,5.4453 -4.0586,2.0977 -8.1055,1.918 -12.273,2.8125 -0.5586,0.13282 -0.9961,1.4414 -0.27344,1.7227 6.3047,2.4258 13.375,-1.9023 19.281,-6.3672 -3.5625,5.0156 -6.8164,10.758 -10.25,15.816 -0.38281,0.55078 -0.23438,1.7695 0.45312,1.4727 4.2422,-1.8438 7.0938,-7.9024 9.8047,-12.453 0.72266,-1.2031 1.4219,-2.3047 2.1328,-3.3477 -0.33984,1.6211 -0.78515,3.1992 -1.1875,4.6133 -1.0938,3.9102 -2.8516,5.8906 -4.793,8.8047 -0.21093,0.3125 -0.32812,1.1914 0.12891,1.2656 2.7539,0.46094 4.6094,-5.1172 5.5312,-7.9453 0.80859,-2.4688 1.5586,-5.5312 1.5508,-8.4336 3.1367,-4.1367 6.5274,-6.7226 11.445,-7.75 0.26563,-0.0586 0.44532,-0.65625 0.12891,-0.80469 -0.96484,-0.42968 -1.8984,-0.625 -2.8203,-0.65234 9.3711,-7.3203 22.758,3.4961 32.359,4.625 h 0.0312 c 3.9219,1.6367 7.9492,2.9297 12,3.7656 9.4531,7.5117 22.016,18.891 32,10.113 0.33985,-0.29688 0.41407,-1.3516 -0.1289,-1.293 -6.1797,0.74219 -11.066,1.4726 -17.074,-1.4883 -3.4961,-1.7109 -6.8047,-4.1484 -10.102,-6.6055 3.8672,0.43359 7.7383,0.37109 11.523,-0.29688 0.39063,-0.0742 0.73828,-0.90625 0.5586,-1.3555 11.141,0.95313 21.762,-5.7539 32.32,-9.7266 6.3047,-2.3828 12.996,-3.9297 19.492,-2.3945 2.1172,0.48828 4.1445,1.5898 6.1133,2.9141 2.7812,2.8711 5.1211,6.7969 7.5156,10.355 4.0586,6.0078 7.9805,9.207 13.844,10.414 6.1367,1.2774 11.977,-1.1484 17.406,-4.9258 4.0469,-2.8242 7.918,-5.2226 12.41,-6.2344 4.207,-0.94922 8.3867,0.46094 12.582,-0.0586 0.57031,-0.0742 0.85938,-1.2656 0.25391,-1.5898 l 2.6172,-1.1172 c 1.6133,2.7383 2.8945,4.8945 5.0898,7.1406 3.793,3.8672 7.0273,6.0703 7.5156,13.434 0.008,0.19531 0.0312,0.35547 0.0508,0.53516"
         id="path2916"
         inkscape:connector-curvature="0"
         style="fill:#3ab84c" />
      <path
         d="m 504.2,230.4 c 0.84765,0.0469 1.6523,0.19531 2.3945,0.4336 -1.2188,0.33984 -2.4297,0.71484 -3.6367,1.0703 -0.31641,0.0898 -0.58203,1.0273 -0.11719,1.0703 l -0.0312,1.0273 c -1.0391,-0.0586 -2.0898,-0.0312 -3.1562,0.0586 -8.0781,0.64062 -15.73,0.38672 -23.035,-5.0274 -5.9336,-4.3867 -11.68,-7.5859 -18.453,-7.9141 -4.9492,-0.2539 -9.8789,0.14844 -14.785,1.1172 -8.7969,1.7383 -17.816,4.832 -26.754,4.2109 -2.4375,0.69531 -4.8984,1.2305 -7.3125,1.7383 l -0.0977,-0.46094 c 1.3906,-0.59375 2.7969,-1.1758 4.207,-1.7422 -0.17969,-0.25 0.0664,-0.89062 0.33985,-0.93359 1.6445,-0.34375 3.2969,-0.70313 4.9492,-1.0742 2.7812,-0.99609 5.5781,-1.9336 8.3984,-2.707 0.28516,-0.0742 0.37891,0.49219 0.13672,0.65625 -0.11719,0.0586 -0.23437,0.11719 -0.33984,0.19141 6.7852,-1.5625 13.578,-3.0781 20.371,-4 9.8164,-1.3398 18.762,-0.55079 27.719,5.5469 5.0547,3.4375 9.8281,6.7266 15.551,6.9648 4.5586,0.19141 9.1055,-0.46093 13.652,-0.22656"
         id="path2918"
         inkscape:connector-curvature="0"
         style="fill:#28703f" />
      <g
         id="g2926"
         style="fill:#3ab84c">
        <path
           d="m 490.69,278.73 c 4.3125,2.3633 8.5977,6.5469 13.121,8.3477 -3.3672,5.7422 -6.4023,11.84 -12.805,6.4375 -4.6524,-3.9258 -7.7891,-3.3906 -12.879,-1.4414 -2.9336,1.1328 -7.0664,1.7695 -9.4844,-1.2656 -1.4297,-1.7852 -1.875,-5.043 -3.5391,-6.5 -0.42578,-0.35546 -0.88281,-0.66796 -1.3359,-0.9375 3.4023,-2.4531 6.75,-4.9844 10.078,-6.5156 5.6836,-2.6172 11.438,-1.0859 16.844,1.875"
           id="path2920"
           inkscape:connector-curvature="0" />
        <path
           d="m 492.84,261.15 c 0.25391,0.41797 0.48829,0.82031 0.71875,1.207 l -2.6172,1.1172 c -6.1484,-3.2734 -11.797,-1.8477 -17.328,0.875 0.625,-0.55078 1.2383,-1.0977 1.8633,-1.6484 0.97657,-0.86328 1.9492,-1.668 3.0234,-2.2773 1.2578,-0.71484 2.6172,-0.44531 3.8672,-1.1602 0.5,-0.28515 0.83594,-1.3086 0.29687,-1.8438 -1.8672,-1.8164 -4.6445,-0.13672 -6.3828,1.3672 -2.2266,1.918 -3.7812,4.9844 -5.8164,7.2305 -6.5312,3.6602 -12.984,8.2539 -20.012,8.0625 -8.1016,-0.22266 -12.742,-6.8281 -18,-14.34 0.78515,0.625 1.5586,1.25 2.3242,1.8438 6.9727,5.3242 14.129,7.2734 21.133,0.96484 4.1133,-3.6875 6.9844,-9.4883 11.543,-12.258 7.2695,-4.3711 12.91,-0.13282 19.312,4.0312 0.24218,0.16406 0.48828,0.12109 0.69921,-0.0274 1.8438,2.1992 3.7734,4.1641 5.375,6.8555"
           id="path2922"
           inkscape:connector-curvature="0" />
        <path
           d="m 453.16,246.02 c 2.7969,3.3945 7.2266,3.4961 10.938,2.8125 -4.7383,3.8086 -7.6641,10.504 -12.984,13.316 -5.543,2.9297 -11.258,-0.98437 -16.039,-4.6289 -7.207,-5.5039 -13.344,-9.0586 -20.848,-8.957 -0.58203,-0.42968 -1.1875,-0.78515 -1.8125,-1.1133 8.9023,0.0586 18.305,-3.8828 26.465,-7.3203 2.3008,-0.96484 4.6016,-1.8438 7.0195,-1.9766 2.5977,-0.13672 5.3828,5.5781 7.2617,7.8672"
           id="path2924"
           inkscape:connector-curvature="0" />
      </g>
      <g
         id="g2934"
         style="fill:#28703f">
        <path
           d="m 322.48,292.12 c 5.0469,-5.2383 12.812,-11.754 19.512,-11.277 -0.66796,-0.41797 -1.3555,-0.82031 -2.0117,-1.25 -3.8398,-2.5273 -8.2031,-5.043 -11.715,-8.6602 l -0.0195,0.25391 -0.0508,0.0312 c -0.51172,-0.96875 -2.0898,0.3125 -4.0742,2.5742 l -0.0312,0.35547 c -0.25391,1.6055 -0.67578,3.1992 -1.1016,4.7305 -0.74219,2.6484 -1.3984,5.7422 -2.9453,7.707 -0.39454,0.49219 -0.92188,0.0312 -0.76563,-0.6836 0.64844,-2.9922 1.5898,-5.9062 2.5234,-8.75 0.0976,-0.28125 0.17969,-0.5625 0.26562,-0.85937 -4.0391,5.1602 -8.7422,12.316 -9.8984,13.418 -0.48829,0.47265 -0.90235,-0.44922 -0.62891,-1.043 2.1133,-4.4609 4.8164,-8.3008 7.5586,-12.004 0.28516,-0.38672 0.60547,-0.84765 0.94532,-1.3398 -5.8945,0.46094 -10.801,9.418 -14.16,15.176 -0.30859,0.53516 -0.87109,-0.0156 -0.69141,-0.61328 2.1328,-7.332 9.2734,-17.926 15.57,-15.574 0.99609,-1.3984 2.1406,-2.9297 3.3398,-4.0469 -7.2383,1.8281 -13.727,3.9883 -19.887,11.23 -1.7266,2.0234 -3.3281,4.2422 -4.9062,6.4414 1.1055,6.5625 5.7773,10.922 10.441,11.961 5.2148,1.1758 8.9258,-3.8203 12.73,-7.7774 z m 85.051,5.5625 c 6.1172,-7.7344 14.289,-13.523 22.523,-13.27 -3.7852,-3.0508 -7.5469,-6.2773 -11.883,-7.9726 -3.4336,4.2226 -5.7969,9.7109 -9.1367,14.027 -0.3164,0.40234 -0.66797,0.0742 -0.66797,-0.37109 0,-0.1211 0.0195,-0.23828 0.0742,-0.35938 1.2617,-3.1094 2.9258,-5.9062 4.6094,-8.5664 1.1914,-1.8906 2.4414,-3.75 3.9023,-5.1797 -3.3164,-1.0391 -10.43,-1.7266 -15.699,0.2539 4.6016,0.14844 6.1914,6.9024 6.4453,13.895 0.10546,2.5898 0.0234,5.207 -0.16797,7.543 z m 39.078,-8.1836 -0.0391,1.0117 -0.0977,-0.0117 c -0.19922,0.63672 -0.59375,1.1875 -1.0703,1.1875 -5.332,0.0156 -9.6758,-2.8125 -13.895,-6.1133 l -0.16016,0.0898 c -9.3906,1.9024 -18.223,7.5703 -24.719,17.434 -0.8789,1.3555 -1.9609,-0.0586 -1.7148,-1.5469 1.3867,-8.4961 2.2461,-22.938 -6.0664,-23.938 l -0.125,-0.0859 c -2.8398,1.9024 -4.5469,5.043 -3.6367,10.039 0.17188,0.9375 -0.41406,1.832 -0.98437,2.1562 -11.426,6.4141 -24.434,4.1523 -35.977,-0.59375 -4.875,-1.9922 -9.6641,-4.375 -14.34,-7.168 -0.0234,0.44531 -0.1914,0.90625 -0.44531,1.082 -6.1992,4.168 -12.891,5.0898 -18.668,11.129 -3.3906,3.5391 -6.8555,8.1836 -11.203,9.1328 -6.5391,1.4609 -14.445,-4.207 -15.41,-13.625 -0.87891,1.2188 -1.7578,2.4102 -2.6719,3.5703 -1.6758,2.1133 -3.8789,4.0312 -5.6172,6.2344 l -0.67969,-0.34375 c 1.1875,-2.8555 3.9961,-5.5039 5.332,-7.5117 1.1875,-1.7695 2.375,-3.4961 3.5742,-5.207 l 0.008,-0.32813 c 0.043,-0.51953 0.48047,-0.89062 0.78516,-0.78906 2.0273,-2.8398 4.1133,-5.5625 6.4023,-8.0781 6.6367,-7.2891 15.496,-11.781 23.934,-9.832 0.41406,0.0899 0.4375,0.77344 0.24609,1.2188 4.4297,2.5156 8.668,6.293 13.035,8.8828 5.4062,3.1836 10.875,6.1875 16.523,8.375 10.941,4.1953 22.758,6.6484 33.633,1.1289 -1.3867,-13.09 11.84,-15.93 18.781,-15.559 5.0273,0.26953 9.625,1.9648 14.078,5.3242 2.8945,2.1875 5.5977,4.8789 8.5234,6.9805 3.8984,2.793 7.707,3.7031 11.977,4.6836 0.45703,0.10547 0.65625,0.55078 0.6875,1.0703"
           id="path2928"
           inkscape:connector-curvature="0" />
        <path
           d="m 435.07,238.85 c 0.45703,0.14843 0.26563,1.0703 -0.082,1.2031 -1.875,0.77344 -3.8906,0.83203 -5.9141,0.46094 1.6719,-0.57813 3.3281,-1.293 4.9688,-1.9922 0.35156,0.10547 0.69141,0.22266 1.0273,0.32813"
           id="path2930"
           inkscape:connector-curvature="0" />
        <path
           d="m 434.04,238.52 c -1.6406,0.69922 -3.2969,1.4141 -4.9688,1.9922 -3.543,-0.625 -7.1445,-2.5273 -10.219,-4.0898 -5.375,-2.7227 -10.609,-5.9375 -15.816,-9.2695 -5.2031,-3.3164 -11.414,-14.059 -17.539,-12.703 -6.668,1.4883 -9.3945,12.242 -15.805,12.84 -2.7773,0.26563 -5.7031,-2.8281 -8.0898,-4.332 -3.2852,-2.0664 -7.1836,-3.1836 -10.684,-4.2969 -3.5312,-1.1484 -8.3633,-3.2891 -11.957,-1.5352 -3.2305,1.5938 -6.0195,4.168 -8.7969,6.9648 -4.4102,4.418 -9.2109,9.7422 -14.848,10.262 -4.75,0.4336 -11.258,-1.6055 -16.082,0.53907 -0.43359,-0.28516 -0.85937,-0.55079 -1.293,-0.82032 3.9648,-2.9453 9.4024,-1.8438 13.652,-2.0391 8.4375,-0.38672 13.59,-6.9297 20.34,-13.047 4.9922,-4.5195 9.2773,-6.1406 15.18,-4.668 6.625,1.6484 12.699,4.1797 18.781,8.0039 6,3.7774 8.3633,-1.875 12.414,-6.8008 1.5898,-1.9336 3.9727,-3.4375 6.0391,-3.8984 5.9688,-1.3242 9.625,3.6445 14.203,8.1992 3.2226,3.1953 6.6797,5.832 10.281,8.0625 0.1289,-0.0586 0.25781,-0.10547 0.38281,-0.16406 l 0.0977,0.46094 c 7.8945,4.8047 16.461,7.6914 24.727,10.34"
           id="path2932"
           inkscape:connector-curvature="0" />
      </g>
      <g
         id="g2944"
         style="fill:#3ab84c">
        <path
           d="m 430.06,284.42 c -8.2344,-0.2539 -16.406,5.5352 -22.523,13.27 0.1914,-2.3359 0.27343,-4.9531 0.16797,-7.543 l 0.66796,-0.043 c 0,0.44531 0.35157,0.77343 0.66797,0.37109 3.3398,-4.3164 5.7031,-9.8047 9.1367,-14.027 4.3359,1.6953 8.0977,4.9219 11.883,7.9726"
           id="path2936"
           inkscape:connector-curvature="0" />
        <path
           d="m 429.07,240.52 c -0.80859,0.3125 -1.6211,0.58203 -2.4492,0.82031 -6.1602,1.7852 -12.422,2.6445 -18.582,4.2852 -1.5391,-0.53906 -3.0742,-1.0742 -4.5273,-1.8008 -4.9492,-2.5156 -8.457,-8.1406 -12.805,-12.051 -2.2461,-2.0234 -4.9805,-3.2734 -7.6289,-2.6328 -2.2891,0.56641 -3.4141,5.1172 -5.1406,6.7969 -4.125,4.0039 -10.535,-1.5898 -14.977,-2.1133 -5.0664,-0.59375 -10.039,0.65625 -14.906,2.5469 -9.2734,3.5977 -17.711,8.7148 -27.113,10.949 -0.92968,-0.23828 -1.875,-0.46484 -2.8164,-0.73047 -0.89063,-0.34375 -1.793,-0.65625 -2.7031,-0.92187 -0.25781,-0.11719 -0.51953,-0.22266 -0.77344,-0.34375 -4.3242,-2.1719 -8.375,-5.457 -12.445,-8.375 -0.98437,-0.69922 -1.9726,-1.3984 -2.9688,-2.0508 4.8242,-2.1445 11.332,-0.10547 16.082,-0.53907 5.6367,-0.51953 10.438,-5.8438 14.848,-10.262 2.7773,-2.7969 5.5664,-5.3711 8.7969,-6.9648 3.5938,-1.7539 8.4258,0.38672 11.957,1.5352 3.5,1.1133 7.3984,2.2305 10.684,4.2969 2.3867,1.5039 5.3125,4.5977 8.0898,4.332 6.4102,-0.59765 9.1367,-11.352 15.805,-12.84 6.125,-1.3555 12.336,9.3867 17.539,12.703 5.207,3.332 10.441,6.5469 15.816,9.2695 3.0742,1.5625 6.6758,3.4648 10.219,4.0898"
           id="path2938"
           inkscape:connector-curvature="0" />
        <path
           d="m 416.96,276 c -1.4609,1.4297 -2.7109,3.2891 -3.9023,5.1797 -1.6836,2.6602 -3.3477,5.457 -4.6094,8.5664 -0.0547,0.1211 -0.0742,0.23828 -0.0742,0.35938 l -0.66796,0.043 c -0.25391,-6.9922 -1.8438,-13.746 -6.4453,-13.895 5.2695,-1.9805 12.383,-1.293 15.699,-0.2539"
           id="path2940"
           inkscape:connector-curvature="0" />
        <path
           d="m 408.12,249.38 -0.13672,0.0312 c -5.9062,1.5156 -11.598,4.0312 -17.289,6.5586 0.32812,-0.38672 0.43359,-1.293 -0.0859,-1.4727 -3.2617,-1.0859 -6.5078,-1.4726 -9.7305,-2.9609 -3.125,-1.4258 -6.2617,-3.3633 -9.5898,-3.7031 -8.5742,-0.90625 -15.445,6.7109 -23.32,10.043 -0.29687,0.11719 -0.37109,0.90625 0.0117,0.875 l -0.28515,2.0859 c -0.78516,-0.19531 -1.582,-0.41797 -2.3672,-0.67188 -7.1328,-2.2461 -13.789,-6.1719 -20.488,-10.117 0.23437,-0.16407 0.35156,-0.53516 0.32812,-0.86329 5.8008,-0.98046 11.512,-4.2383 16.938,-6.8555 5.1094,-2.457 10.25,-4.5391 15.648,-5.2227 3.0625,-0.38672 6.168,0.0312 9.1133,1.2188 2.0469,0.82031 4.2109,2.2344 6.3711,2.2188 2.7578,0 5.1836,-0.95313 7.2188,-3.6172 1.0586,-1.3828 1.5586,-3.7461 2.957,-4.625 2.5,-1.5469 6.4219,2.6641 8.2773,4.5352 3.1602,3.1836 5.9141,7.3789 9.625,9.3906 2.1953,1.2031 4.4844,2.2734 6.8047,3.1524"
           id="path2942"
           inkscape:connector-curvature="0" />
      </g>
      <path
         d="m 390.61,254.5 c 0.51953,0.17969 0.41406,1.0859 0.0859,1.4727 l -0.73047,0.32813 c -6.1055,1.9336 -11.828,-4.0781 -17.734,-5.3711 -9.0703,-2.0078 -15.633,7.1875 -24.25,7.8242 -0.38281,0.0312 -0.30859,-0.75781 -0.0117,-0.875 7.875,-3.332 14.746,-10.949 23.32,-10.043 3.3281,0.33985 6.4648,2.2774 9.5898,3.7031 3.2227,1.4883 6.4688,1.875 9.7305,2.9609"
         id="path2946"
         inkscape:connector-curvature="0"
         style="fill:#28703f" />
      <g
         id="g2954"
         style="fill:#3ab84c">
        <path
           d="m 372.23,250.93 c 5.9062,1.293 11.629,7.3047 17.734,5.3711 -7.0274,3.1367 -14.055,6.2617 -21.434,7.5273 -0.1914,0.0312 -0.29687,0.29687 -0.28515,0.53516 -6.8594,-1.3555 -13.738,-1.7383 -20.551,-3.5234 l 0.28515,-2.0859 c 8.6172,-0.63672 15.18,-9.832 24.25,-7.8242"
           id="path2948"
           inkscape:connector-curvature="0" />
        <path
           d="m 342,280.85 c -6.6992,-0.47656 -14.465,6.0391 -19.512,11.277 -3.8047,3.957 -7.5156,8.9531 -12.73,7.7774 -4.6641,-1.0391 -9.3359,-5.3984 -10.441,-11.961 1.5781,-2.1992 3.1797,-4.418 4.9062,-6.4414 6.1602,-7.2422 12.648,-9.4023 19.887,-11.23 -1.1992,1.1172 -2.3438,2.6484 -3.3398,4.0469 -6.2969,-2.3516 -13.438,8.2422 -15.57,15.574 -0.17968,0.59766 0.38282,1.1484 0.69141,0.61328 3.3594,-5.7578 8.2656,-14.715 14.16,-15.176 -0.33985,0.49219 -0.66016,0.95312 -0.94532,1.3398 -2.7422,3.7031 -5.4453,7.543 -7.5586,12.004 -0.27344,0.59375 0.14062,1.5156 0.62891,1.043 1.1562,-1.1016 5.8594,-8.2578 9.8984,-13.418 -0.0859,0.29687 -0.16797,0.57812 -0.26562,0.85937 -0.9336,2.8438 -1.875,5.7578 -2.5234,8.75 -0.15625,0.71485 0.37109,1.1758 0.76563,0.6836 1.5469,-1.9648 2.2031,-5.0586 2.9453,-7.707 0.42578,-1.5312 0.84765,-3.125 1.1016,-4.7305 l 0.0312,-0.35547 c 1.9844,-2.2617 3.5625,-3.543 4.0742,-2.5742 l 0.0508,-0.0312 0.0195,-0.25391 c 3.5117,3.6172 7.875,6.1328 11.715,8.6602 0.65625,0.42969 1.3438,0.83203 2.0117,1.25"
           id="path2950"
           inkscape:connector-curvature="0" />
        <path
           d="m 307.94,244.38 c -2.4062,-0.0859 -4.7695,0.13672 -6.9766,0.77343 -7.9062,2.25 -14.391,9.418 -22.16,12.348 -6.3086,2.3828 -12.984,1.5469 -19.566,1.043 4.9492,-1.5312 17.508,-23.238 19.555,-24.488 8.8203,-5.3711 18.422,2.5156 26.086,8.0664 0.9414,0.6836 1.9688,1.457 3.0625,2.2578"
           id="path2952"
           inkscape:connector-curvature="0" />
      </g>
      <path
         d="m 299.24,234.89 c -0.6875,0.29687 -1.3359,0.66796 -1.9375,1.1602 -0.55078,0.44531 -0.77344,-0.68359 -0.33984,-1.1172 0.3164,-0.3125 0.64453,-0.59375 0.98437,-0.86328 0.4336,0.26953 0.85938,0.53516 1.293,0.82032"
         id="path2956"
         inkscape:connector-curvature="0"
         style="fill:#28703f" />
      <path
         d="m 263.15,278.08 c 3.1562,3.3906 6.0508,7.5976 8.6602,10.918 -6.1719,1.3398 -11.84,6.1719 -18.125,6.8867 -8.4062,0.9375 -7.918,-13.449 -9.625,-21.438 3.1367,-1.4141 6.1484,-2.2148 8.5742,-2.3047 3.1172,-0.1211 6.0742,1.6641 8.8398,4.2539 -0.94141,0.55078 -1.8555,1.2344 -2.6602,1.7695 -2.1836,1.4609 -3.9961,3.6016 -5.0977,6.6367 -0.2539,0.6836 0.28516,1.1445 0.625,0.55078 1.3672,-2.3672 3.1172,-3.9883 5.0352,-5.3125 0.44531,-0.3125 0.91016,-0.55078 1.3984,-0.78906 -0.72266,3.2148 -1.3789,6.4727 -2.1953,9.6562 -0.16797,0.69922 0.46875,1.0273 0.73437,0.42969 1.4492,-3.2695 2.2969,-6.9609 2.8281,-10.738 0.33984,-0.16407 0.67968,-0.32813 1.0078,-0.51953"
         id="path2958"
         inkscape:connector-curvature="0"
         style="fill:#3ab84c" />
      <path
         d="m 446.64,238.22 h -0.004 v -0.004 l 0.004,0.004"
         id="path2960"
         inkscape:connector-curvature="0"
         style="fill:#611e30" />
    </g>
  </g>
</svg>
