<?xml version="1.0" encoding="UTF-8" standalone="no"?>
<!-- Generator: Adobe Illustrator 18.1.1, SVG Export Plug-In . SVG Version: 6.00 Build 0)  -->

<svg
   xmlns:dc="http://purl.org/dc/elements/1.1/"
   xmlns:cc="http://creativecommons.org/ns#"
   xmlns:rdf="http://www.w3.org/1999/02/22-rdf-syntax-ns#"
   xmlns:svg="http://www.w3.org/2000/svg"
   xmlns="http://www.w3.org/2000/svg"
   xmlns:sodipodi="http://sodipodi.sourceforge.net/DTD/sodipodi-0.dtd"
   xmlns:inkscape="http://www.inkscape.org/namespaces/inkscape"
   version="1.1"
   id="Capa_1"
   x="0px"
   y="0px"
   viewBox="0 0 20.000001 20.000001"
   xml:space="preserve"
   sodipodi:docname="remove.svg"
   width="20"
   height="20"
   inkscape:version="0.92.3 (2405546, 2018-03-11)"><metadata
   id="metadata40"><rdf:RDF><cc:Work
       rdf:about=""><dc:format>image/svg+xml</dc:format><dc:type
         rdf:resource="http://purl.org/dc/dcmitype/StillImage" /><dc:title></dc:title></cc:Work></rdf:RDF></metadata><defs
   id="defs38">
	
</defs><sodipodi:namedview
   pagecolor="#ffffff"
   bordercolor="#666666"
   borderopacity="1"
   objecttolerance="10"
   gridtolerance="10"
   guidetolerance="10"
   inkscape:pageopacity="0"
   inkscape:pageshadow="2"
   inkscape:window-width="1366"
   inkscape:window-height="731"
   id="namedview36"
   showgrid="false"
   inkscape:pagecheckerboard="true"
   inkscape:zoom="10.794837"
   inkscape:cx="16.407819"
   inkscape:cy="11.416779"
   inkscape:window-x="0"
   inkscape:window-y="18"
   inkscape:window-maximized="0"
   inkscape:current-layer="Capa_1" />
<path
   inkscape:connector-curvature="0"
   id="path2"
   d="m 11.804463,10.000036 5.413256,-5.4132559 c 0.498297,-0.4982967 0.498297,-1.3061932 0,-1.8044187 -0.498296,-0.4982967 -1.306122,-0.4982967 -1.804419,0 L 9.9999733,8.1956887 4.5866462,2.7822902 c -0.4982967,-0.4982967 -1.306122,-0.4982967 -1.8044186,0 -0.4982254,0.4982967 -0.4982254,1.3061932 0,1.8044186 L 8.1955547,9.9999643 2.7822276,15.413292 c -0.4982254,0.498296 -0.4982254,1.306193 0,1.804418 0.4982966,0.498296 1.3061219,0.498296 1.8044186,0 L 9.9999733,11.804382 15.4133,17.21771 c 0.498226,0.498296 1.306123,0.498296 1.804419,0 0.498297,-0.498297 0.498297,-1.306122 0,-1.804418 z"
   style="clip-rule:evenodd;fill-rule:evenodd;stroke-width:0.07128709" />
<g
   id="g5"
   transform="translate(-2.5e-4,-192.98149)">
</g>
<g
   id="g7"
   transform="translate(-2.5e-4,-192.98149)">
</g>
<g
   id="g9"
   transform="translate(-2.5e-4,-192.98149)">
</g>
<g
   id="g11"
   transform="translate(-2.5e-4,-192.98149)">
</g>
<g
   id="g13"
   transform="translate(-2.5e-4,-192.98149)">
</g>
<g
   id="g15"
   transform="translate(-2.5e-4,-192.98149)">
</g>
<g
   id="g17"
   transform="translate(-2.5e-4,-192.98149)">
</g>
<g
   id="g19"
   transform="translate(-2.5e-4,-192.98149)">
</g>
<g
   id="g21"
   transform="translate(-2.5e-4,-192.98149)">
</g>
<g
   id="g23"
   transform="translate(-2.5e-4,-192.98149)">
</g>
<g
   id="g25"
   transform="translate(-2.5e-4,-192.98149)">
</g>
<g
   id="g27"
   transform="translate(-2.5e-4,-192.98149)">
</g>
<g
   id="g29"
   transform="translate(-2.5e-4,-192.98149)">
</g>
<g
   id="g31"
   transform="translate(-2.5e-4,-192.98149)">
</g>
<g
   id="g33"
   transform="translate(-2.5e-4,-192.98149)">
</g>
</svg>