<?xml version="1.0" encoding="UTF-8" standalone="no"?>
<!-- Created with Inkscape (http://www.inkscape.org/) -->

<svg
   xmlns:dc="http://purl.org/dc/elements/1.1/"
   xmlns:cc="http://creativecommons.org/ns#"
   xmlns:rdf="http://www.w3.org/1999/02/22-rdf-syntax-ns#"
   xmlns:svg="http://www.w3.org/2000/svg"
   xmlns="http://www.w3.org/2000/svg"
   xmlns:sodipodi="http://sodipodi.sourceforge.net/DTD/sodipodi-0.dtd"
   xmlns:inkscape="http://www.inkscape.org/namespaces/inkscape"
   width="1889.7637"
   height="837.6059"
   viewBox="0 0 499.99998 221.61656"
   version="1.1"
   id="svg1194"
   inkscape:version="0.92.3 (2405546, 2018-03-11)"
   sodipodi:docname="top-bun.svg">
  <defs
     id="defs1188" />
  <sodipodi:namedview
     id="base"
     pagecolor="#ffffff"
     bordercolor="#666666"
     borderopacity="1.0"
     inkscape:pageopacity="0.0"
     inkscape:pageshadow="2"
     inkscape:zoom="0.33257417"
     inkscape:cx="982.10333"
     inkscape:cy="322.96506"
     inkscape:document-units="mm"
     inkscape:current-layer="layer1"
     showgrid="false"
     inkscape:window-width="1366"
     inkscape:window-height="731"
     inkscape:window-x="0"
     inkscape:window-y="18"
     inkscape:window-maximized="0"
     units="px" />
  <metadata
     id="metadata1191">
    <rdf:RDF>
      <cc:Work
         rdf:about="">
        <dc:format>image/svg+xml</dc:format>
        <dc:type
           rdf:resource="http://purl.org/dc/dcmitype/StillImage" />
        <dc:title />
      </cc:Work>
    </rdf:RDF>
  </metadata>
  <g
     inkscape:label="Layer 1"
     inkscape:groupmode="layer"
     id="layer1"
     transform="translate(12.5519,107.71283)">
    <g
       transform="matrix(1.4333044,0,0,1.4333044,-258.09156,-107.71283)"
       id="g1186">
      <path
         style="fill:#de6826;fill-opacity:1;fill-rule:nonzero;stroke:none;stroke-width:1"
         d="m 257.93485,7.906249 c -0.17968,0.05469 -0.36328,0.09375 -0.54295,0.121095 0.1992,-0.0078 0.39453,-0.04297 0.54295,-0.121095"
         id="path178-6"
         inkscape:connector-curvature="0" />
      <path
         style="fill:#ae682b;fill-opacity:1;fill-rule:nonzero;stroke:none;stroke-width:1"
         d="m 343.85664,0.195312 c 0,0 -128.79297,5.640622 -166.39843,82.730473 -37.60547,77.089835 166.39843,70.507805 166.39843,70.507805 0,0 182.95306,6.30859 173.92186,-55.464845 C 509.9465,44.382805 443.509,3.640624 343.85664,0.195312"
         id="path1002-1"
         inkscape:connector-curvature="0" />
      <path
         style="fill:#572e1e;fill-opacity:1;fill-rule:nonzero;stroke:none;stroke-width:1"
         d="m 343.86064,0 c 0,0 3.1914,0.03906 9.17187,0.300781 5.97267,0.417969 14.74609,0.871094 25.84375,2.277344 2.77344,0.351563 5.68751,0.769531 8.7461,1.191406 3.05079,0.480469 6.2461,0.976563 9.57031,1.558594 3.30468,0.660156 6.77343,1.234375 10.32031,2.074219 1.77344,0.406249 3.59375,0.769531 5.42579,1.226562 1.83202,0.464844 3.69141,0.933594 5.58202,1.414063 7.53906,2.027343 15.50001,4.457031 23.70701,7.589846 8.1953,3.13672 16.6641,6.92187 25.0469,11.7539 8.3828,4.81641 16.7383,10.60938 24.4531,17.73047 3.8438,3.57813 7.5,7.49219 10.8985,11.73829 3.3398,4.29687 6.4179,8.91406 9.0742,13.87109 2.582,5.00782 4.7148,10.30078 6.2734,15.91406 0.3516,1.41407 0.7578,2.86329 1.043,4.26563 0.2539,1.39453 0.5039,2.78905 0.7578,4.1914 0.4414,3.105455 0.5273,6.125005 0.1016,9.238285 -0.9415,6.17187 -4.0391,11.98828 -8.3516,16.42187 -2.1367,2.23828 -4.4727,4.28906 -7,6.03515 -2.5156,1.76954 -5.1328,3.38672 -7.8555,4.79297 -5.4218,2.87891 -11.1484,5.12891 -16.9804,7.08593 -5.8399,1.95313 -11.8204,3.54688 -17.8711,4.92189 -12.1133,2.73436 -24.51565,4.64452 -37.05863,5.99218 -25.08984,2.67578 -50.70702,3.45703 -76.27734,2.82812 l -4.73437,-0.14453 -4.80468,0.0508 c -3.19923,0.0117 -6.39453,-0.008 -9.58595,-0.0547 -6.38671,-0.0859 -12.76171,-0.27734 -19.12108,-0.55468 -12.72267,-0.4961 -25.37892,-1.35937 -37.89064,-2.69921 -6.25391,-0.69141 -12.48047,-1.42579 -18.64844,-2.34765 -6.16797,-0.92579 -12.28906,-1.98438 -18.33984,-3.21876 -12.07422,-2.53125 -23.95313,-5.66406 -35.00781,-10.60547 -5.51953,-2.45311 -10.8125,-5.42578 -15.53516,-9.16797 -4.69141,-3.73828 -8.8125,-8.41015 -11.19922,-14.01171 -1.14844,-2.79297 -1.96875,-5.7461 -2.19922,-8.74219 -0.20703,-2.984375 -0.13672,-5.996095 0.46875,-8.871095 0.20703,-1.46093 0.66016,-2.84765 1.01953,-4.25781 0.39844,-1.39844 0.95704,-2.76563 1.42969,-4.14453 l 1.25391,-2.85938 0.21094,-0.47265 0.10156,-0.23829 c 0.0859,-0.18358 0.0937,-0.18358 0.14453,-0.28515 0.66016,-1.23828 1.32031,-2.47656 1.97266,-3.70704 5.30078,-9.82421 12.10546,-18.44139 19.63281,-25.70312 7.52344,-7.28906 15.69531,-13.3125 23.94531,-18.33594 8.23828,-5.05859 16.58984,-9.08203 24.66406,-12.50781 8.10547,-3.375 15.96875,-6.085936 23.42969,-8.374998 14.9297,-4.566408 28.28516,-7.214845 39.28906,-9.164063 11.02344,-1.878906 19.75001,-2.808594 25.71095,-3.390625 L 343.85674,0 Z m -0.004,0.195312 c -0.0977,0.0039 -3.26953,0.152344 -9.125,0.742188 -5.94922,0.609375 -14.66797,1.640625 -25.63281,3.734375 -2.7461,0.496094 -5.6211,1.113281 -8.63672,1.742187 -3.00391,0.6875 -6.14844,1.398437 -9.40235,2.246093 -6.50756,1.664064 -13.51146,3.617189 -20.85912,6.109377 -7.34766,2.476563 -15.06641,5.398433 -22.98438,8.960933 -7.89843,3.59375 -15.96875,7.8711 -23.98046,12.94141 -7.98047,5.10938 -15.89844,11.0625 -23.16407,18.1875 -7.2539,7.11719 -13.8789,15.39063 -19.04687,24.85937 -0.64844,1.17969 -1.29688,2.3672 -1.94922,3.5547 l -0.0937,0.17187 -0.10938,0.23828 -0.21484,0.47266 -0.42578,0.9453 -0.85938,1.89453 c -0.43359,1.24611 -0.95312,2.46095 -1.33203,3.7461 -0.34375,1.29687 -0.78906,2.57813 -0.98437,3.91016 -0.59766,2.63281 -0.71875,5.33593 -0.59375,8.023435 0.14453,2.69531 0.82812,5.34375 1.80469,7.88672 2.03515,5.08594 5.73046,9.51953 10.125,13.17578 4.42187,3.66016 9.48437,6.67187 14.83984,9.19531 10.71875,5.07032 22.43359,8.51564 34.41797,11.14844 5.99609,1.32812 12.08594,2.4297 18.23047,3.36328 6.14453,0.9336 12.34375,1.75001 18.58984,2.3672 12.48438,1.25389 25.12109,2.03124 37.81641,2.44139 6.34765,0.17578 12.71093,0.24218 19.07812,0.21875 3.1836,-0.0117 6.36719,-0.0508 9.55078,-0.11719 l 4.76563,-0.13671 4.83594,0.0586 c 12.73828,0.0664 25.48828,-0.28125 38.15625,-0.95312 12.67188,-0.64454 25.26953,-1.65236 37.69921,-3.15625 12.42189,-1.49611 24.69534,-3.44141 36.59374,-6.23829 5.9453,-1.40235 11.8008,-3.00782 17.4727,-4.95703 5.6679,-1.94922 11.1953,-4.17579 16.3281,-6.95704 5.1367,-2.74609 9.9102,-6.05467 13.7305,-10.10156 3.875,-3.99609 6.4414,-8.95312 7.2578,-14.1875 0.3594,-2.60547 0.2617,-5.35156 -0.09,-7.882805 -0.2539,-1.40233 -0.5078,-2.79688 -0.7617,-4.1914 -0.2774,-1.37109 -0.6602,-2.63673 -0.9727,-3.95703 -1.418,-5.24219 -3.4219,-10.32423 -5.8398,-15.08594 -2.4961,-4.73438 -5.4102,-9.16016 -8.5821,-13.30469 -1.6601,-2.01172 -3.2617,-4.05078 -5.0468,-5.91016 -1.6993,-1.93359 -3.5547,-3.69922 -5.3516,-5.48828 -3.7109,-3.46094 -7.5117,-6.72265 -11.4883,-9.60937 -0.9922,-0.72266 -1.9648,-1.46875 -2.957,-2.17578 -1.0078,-0.6836 -2.0078,-1.36329 -3.0078,-2.04297 -1.9727,-1.39453 -4.0469,-2.59375 -6.0508,-3.85547 -16.2464,-9.8164 -32.73073,-16.05078 -47.56276,-20.480467 -14.89062,-4.320313 -28.21483,-6.964844 -39.26562,-8.480469 -11.04297,-1.625 -19.81251,-2.15625 -25.77343,-2.609375 -5.84376,-0.292969 -9.01563,-0.449219 -9.14844,-0.457032"
         id="path1004-2"
         inkscape:connector-curvature="0" />
      <path
         style="fill:#8f5128;fill-opacity:1;fill-rule:nonzero;stroke:none;stroke-width:1"
         d="m 182.78251,99.964845 c 0,0 -4.38672,45.132805 170.47266,45.124995 0,0 -157.9375,-22.77734 -144.77735,-85.031245 0,0 -25.07031,21.10546 -25.69531,39.90625"
         id="path1006-7"
         inkscape:connector-curvature="0" />
      <path
         style="fill:#572e1e;fill-opacity:1;fill-rule:nonzero;stroke:none;stroke-width:1"
         d="m 207.04032,62.652345 c -5.96093,5.50782 -22.78125,22.34375 -23.28125,37.34375 -0.008,0.105455 -0.34765,5.121095 5.6836,11.671875 10.76172,11.69531 44.76953,31.03124 151.84766,32.37499 -10.95704,-2.03515 -28.3125,-5.66406 -46.81641,-11.10156 -41.4375,-12.17579 -68.58203,-27.14063 -80.6875,-44.472645 -5.6836,-8.14062 -7.94922,-16.8125 -6.7461,-25.81641 z m 146.21485,83.746095 h -0.0352 c -51.07812,0 -91.84767,-4.03125 -121.18359,-11.65236 -21.21483,-5.51172 -36.08201,-12.91797 -44.19139,-21.84764 -6.51172,-7.16797 -6.05859,-12.75391 -6.03516,-12.984385 0.62891,-18.95703 25.00391,-39.70702 26.03907,-40.58202 l 2.17187,-1.83595 -0.58594,2.76955 c -2,9.45312 0.004,18.5664 5.95313,27.08592 28.29687,40.527355 136.91407,56.785155 138.00782,56.941405 l -0.14062,2.10548"
         id="path1008-0"
         inkscape:connector-curvature="0" />
      <path
         style="fill:#572e1e;fill-opacity:1;fill-rule:nonzero;stroke:none;stroke-width:1"
         d="m 443.5052,39.851565 c -2.2071,-1.0625 -5.99612,-2.49219 -7.4258,-0.32813 v 0.20703 c 1.7305,1.95313 4.8398,2.20703 6.957,3.70313 0.8203,0.57422 3.0274,1.97265 3.9571,0.71484 1.1484,-1.58203 -1.6329,-4.71093 -3.4883,-4.29687"
         id="path1010-9"
         inkscape:connector-curvature="0" />
      <path
         style="fill:#572e1e;fill-opacity:1;fill-rule:nonzero;stroke:none;stroke-width:1"
         d="m 420.59501,55.042965 -0.0547,-0.16015 c -0.10547,-0.39453 -0.875,-0.60938 -1.15625,-0.73438 -1.21485,-0.46875 -2.16406,-1.39843 -3.36718,-1.90625 -1.96485,-0.83593 -3.61719,1.40235 -1.69142,2.66797 1.05078,0.69922 2.30469,0.93359 3.41406,1.53516 0.82814,0.44922 2.07813,0.76172 2.79297,1.36328 0.3086,0.26954 0.67578,0.39453 1.07814,0.40235 0.72264,0.0273 0.9492,-0.875 0.91406,-1.41798 -0.0664,-1.01562 -1.00781,-1.64453 -1.92969,-1.75"
         id="path1012-3"
         inkscape:connector-curvature="0" />
      <path
         style="fill:#572e1e;fill-opacity:1;fill-rule:nonzero;stroke:none;stroke-width:1"
         d="m 420.81377,28.898435 c 0.65625,-0.0547 1.20312,-0.42969 1.43749,-1.04297 0.14063,-0.35937 0.14063,-0.79687 0.0547,-1.17578 -0.0625,-0.26172 -0.22656,-0.5625 -0.34767,-0.875 l 0.0391,-0.0664 c -0.0391,-0.12109 -0.0937,-0.22265 -0.16015,-0.3164 -0.0274,-0.13282 -0.0469,-0.26563 -0.0274,-0.38672 0.0625,-0.34766 -0.43359,-0.46875 -0.55469,-0.1875 -1.75,-1.13672 -5.60547,-0.32813 -4.62499,1.83203 0.67578,1.50391 2.60155,2.35937 4.18359,2.21875"
         id="path1014-6"
         inkscape:connector-curvature="0" />
      <path
         style="fill:#572e1e;fill-opacity:1;fill-rule:nonzero;stroke:none;stroke-width:1"
         d="m 400.61846,31.625005 c -0.15235,-0.64063 -1.10938,-0.89454 -1.66407,-1.07032 -0.84375,-0.27344 -2.04687,0.46094 -2.4336,1.1836 -0.48828,0.91015 -0.49999,2.04687 0.0274,2.95312 0.60156,1.02344 1.16406,1.17188 2.21875,1.52344 1.41795,0.46094 4.28514,1.5039 5.43359,-0.0195 1.53124,-2.04297 -2.11719,-4.08203 -3.58203,-4.57031"
         id="path1016-0"
         inkscape:connector-curvature="0" />
      <path
         style="fill:#572e1e;fill-opacity:1;fill-rule:nonzero;stroke:none;stroke-width:1"
         d="m 370.31768,11.703125 c -0.32032,-0.570313 -1.31641,-0.542969 -1.89844,-0.554687 -0.89064,-0.02734 -1.83204,1.015624 -2.00391,1.824218 -0.20703,1.015625 0.10546,2.097656 0.86718,2.820313 0.85548,0.808596 1.44922,0.800776 2.55469,0.828126 1.4961,0.0469 4.53126,0.23437 5.21094,-1.550783 0.89454,-2.378906 -3.17968,-3.308593 -4.73046,-3.367187"
         id="path1018-6"
         inkscape:connector-curvature="0" />
      <path
         style="fill:#572e1e;fill-opacity:1;fill-rule:nonzero;stroke:none;stroke-width:1"
         d="m 374.13407,33.234375 -0.0547,-0.13281 c -1.86329,-0.73438 -3.52735,-2.48047 -5.63282,-2.51172 -0.79687,-0.0195 -1.31641,0.32031 -1.5586,1.08203 -0.30078,0.92969 0.32813,1.42188 0.92187,2.03125 0.99611,1.02344 2.07423,1.98437 3.19533,2.875 0.61328,0.49219 1.48437,1.30078 2.32031,1.30859 0.62109,0 0.96875,-2.43359 1.10156,-2.875 0.0742,-0.2539 0.42188,-0.90625 0.24219,-1.16796 -0.16797,-0.24219 -0.34375,-0.44141 -0.53516,-0.60938"
         id="path1020-2"
         inkscape:connector-curvature="0" />
      <path
         style="fill:#572e1e;fill-opacity:1;fill-rule:nonzero;stroke:none;stroke-width:1"
         d="m 354.5794,50.730465 -0.0899,-0.14453 c -0.20703,-0.34765 -1.00781,-0.33594 -1.3203,-0.36328 -1.29689,-0.125 -2.46095,-0.74609 -3.76563,-0.89453 -2.11719,-0.24219 -3.07812,2.36719 -0.86718,3.04297 1.20312,0.36719 2.47264,0.23828 3.70311,0.5 0.92188,0.20703 2.19922,0.15234 3.06642,0.52734 0.375,0.16797 0.76171,0.1875 1.15624,0.0859 0.69531,-0.1875 0.65625,-1.11328 0.46875,-1.6289 -0.35547,-0.94922 -1.42969,-1.29688 -2.35156,-1.125"
         id="path1022-6"
         inkscape:connector-curvature="0" />
      <path
         style="fill:#572e1e;fill-opacity:1;fill-rule:nonzero;stroke:none;stroke-width:1"
         d="m 348.49735,24.179685 c 0.0391,-0.38281 -0.082,-0.8164 -0.28125,-1.14843 -0.13281,-0.22266 -0.36717,-0.47657 -0.5742,-0.74219 l 0.0195,-0.0742 c -0.0664,-0.10547 -0.16017,-0.17969 -0.24611,-0.26172 -0.0625,-0.11328 -0.12109,-0.23438 -0.12889,-0.35938 -0.0469,-0.34765 -0.5547,-0.32812 -0.59376,-0.0195 -2,-0.60156 -5.46093,1.26172 -3.91797,3.06641 1.07031,1.24219 3.16797,1.52344 4.64062,0.9375 0.61328,-0.23438 1.02735,-0.75 1.08203,-1.39844"
         id="path1024-1"
         inkscape:connector-curvature="0" />
      <path
         style="fill:#572e1e;fill-opacity:1;fill-rule:nonzero;stroke:none;stroke-width:1"
         d="m 328.81376,33.898435 c -0.32812,-0.57031 -1.31641,-0.54297 -1.89844,-0.55078 -0.89453,-0.0312 -1.83593,1.01172 -2.0039,1.82422 -0.20703,1.01172 0.0937,2.09375 0.86328,2.81641 0.85547,0.80859 1.4414,0.80078 2.55078,0.82812 1.50392,0.0469 4.53906,0.23438 5.20703,-1.55078 0.90234,-2.37891 -3.16797,-3.30859 -4.71875,-3.36719"
         id="path1026-8"
         inkscape:connector-curvature="0" />
      <path
         style="fill:#572e1e;fill-opacity:1;fill-rule:nonzero;stroke:none;stroke-width:1"
         d="m 312.82157,15.964845 c -2.44531,0.0742 -6.46875,0.54297 -6.74218,3.12109 l 0.0937,0.1875 c 2.43749,0.92969 5.3242,-0.27344 7.87889,0.082 0.98828,0.13281 3.60156,0.35938 3.84767,-1.18359 0.28905,-1.92578 -3.62111,-3.429688 -5.07813,-2.20703"
         id="path1028-7"
         inkscape:connector-curvature="0" />
      <path
         style="fill:#572e1e;fill-opacity:1;fill-rule:nonzero;stroke:none;stroke-width:1"
         d="m 307.82158,67.050785 c -0.23829,-0.1914 -0.46094,-0.33203 -0.68751,-0.43359 l -0.0937,-0.11328 c -1.99218,-0.17969 -4.08204,-1.39064 -6.11329,-0.82813 -0.76172,0.21875 -1.17186,0.6875 -1.19139,1.48438 -0.0274,0.98047 0.71484,1.26953 1.46484,1.68359 1.24219,0.70703 2.54686,1.31641 3.88281,1.86328 0.71485,0.30078 1.77734,0.82422 2.58593,0.60156 0.59375,-0.17968 0.24609,-2.61328 0.24609,-3.07421 0,-0.26563 0.14844,-0.98829 -0.0937,-1.1836"
         id="path1030-9"
         inkscape:connector-curvature="0" />
      <path
         style="fill:#572e1e;fill-opacity:1;fill-rule:nonzero;stroke:none;stroke-width:1"
         d="m 304.38799,47.605465 c 0.60156,-0.16797 0.24609,-2.60156 0.24609,-3.07421 0.008,-0.25391 0.16016,-0.98438 -0.0859,-1.1836 -0.23438,-0.1875 -0.46094,-0.32031 -0.6875,-0.43359 l -0.0937,-0.10156 c -1.9922,-0.1875 -4.07814,-1.39063 -6.10938,-0.82813 -0.76953,0.21875 -1.17579,0.67578 -1.19532,1.47656 -0.0274,0.98828 0.71484,1.26953 1.45704,1.69141 1.24999,0.70703 2.55858,1.31641 3.88281,1.86328 0.72655,0.29297 1.78906,0.82813 2.58594,0.58984"
         id="path1032-2"
         inkscape:connector-curvature="0" />
      <path
         style="fill:#572e1e;fill-opacity:1;fill-rule:nonzero;stroke:none;stroke-width:1"
         d="m 281.86455,23.070315 c -0.94923,-0.26172 -3.375,-0.83594 -3.95703,0.36718 -0.0664,0.13282 0.0625,0.2461 0.1953,0.21485 0.14844,-0.0352 0.29298,-0.0742 0.4336,-0.11328 l 0.008,0.0195 c -1.62501,0.40625 -2.5,1.67578 -2.59375,3.66796 0,0.14844 0.082,0.24219 0.23437,0.25391 1.86329,0.0352 3.69531,0.0469 5.51954,-0.38672 0.70312,-0.16015 2.96875,-0.58203 2.85546,-1.73047 -0.14063,-1.29687 -1.58594,-1.98437 -2.69531,-2.29296"
         id="path1034-0"
         inkscape:connector-curvature="0" />
      <path
         style="fill:#572e1e;fill-opacity:1;fill-rule:nonzero;stroke:none;stroke-width:1"
         d="m 264.42315,52.410155 c 0.0586,-0.1289 0.0859,-0.26172 0.11328,-0.39453 0.25389,0 0.5664,0 0.86718,0.0117 -0.0586,0.23438 -0.19922,0.16797 -0.62109,0.28906 -0.15234,0.0391 -0.29298,0.10547 -0.42188,0.16797 z m -0.19533,-1.01562 c -0.16797,0 -0.29297,0.17968 -0.28125,0.33984 0.0156,0.23438 0.0469,0.45313 0.14064,0.66016 0.0469,0.10156 0.16797,0.14062 0.25389,0.10156 -0.42578,0.23437 -0.80078,0.59375 -1.12109,0.92969 -0.95703,1.00781 -1.65234,2.48437 -1.71874,3.875 -0.0117,0.14063 0.0547,0.26172 0.20703,0.30078 2.57421,0.55469 4.3789,-1.22266 5.61327,-3.28125 0.46875,-0.78125 0.76953,-1.73047 0.008,-2.41797 -0.73438,-0.66797 -2.19141,-0.50781 -3.10157,-0.50781"
         id="path1036-2"
         inkscape:connector-curvature="0" />
      <path
         style="fill:#572e1e;fill-opacity:1;fill-rule:nonzero;stroke:none;stroke-width:1"
         d="m 263.34111,36.316405 c 0.76563,-1.60547 -1.46484,-2.48047 -3.22266,-2.92187 l -0.0391,-0.0117 c -0.39454,-0.14063 -0.76954,-0.1875 -1.33204,-0.19532 l -0.16015,-0.0469 c -0.16016,0 -0.23438,-0.15234 -0.2461,-0.0195 -2.0664,0.19532 -4.25781,0.83594 -5.66015,2.33985 -1.65235,1.76953 0.0586,3.03515 1.99609,2.92578 1.67969,-0.10547 3.26172,-1 4.95313,-1.10156 1.26953,-0.0664 3.03515,0.44921 3.71093,-0.96875"
         id="path1038-3"
         inkscape:connector-curvature="0" />
      <path
         style="fill:#572e1e;fill-opacity:1;fill-rule:nonzero;stroke:none;stroke-width:1"
         d="m 234.23564,53.679685 0.0312,-0.0195 c 0.0937,-0.0937 -0.0586,-0.2539 -0.16016,-0.16796 -0.0859,0.0664 -0.17969,0.11328 -0.27344,0.17968 -0.5625,-0.0273 -1.0625,-0.10547 -1.34375,-0.32031 -0.3125,-0.23437 -0.70703,0.22656 -0.39453,0.46875 0.21484,0.16016 0.44141,0.27344 0.66406,0.35938 -1.05859,0.34765 -2.1875,0.44921 -3.10937,1.08984 -0.3125,0.29297 -0.62891,0.57422 -0.94922,0.84375 -0.78906,0.66016 -0.60156,0.15234 -0.94141,0.38672 -0.35547,0.2539 -0.72265,0.85547 -0.85547,1.28906 -0.85546,2.98828 2.91407,2.48047 4.54297,1.52344 0.6836,-0.40625 1.35157,-0.84766 1.92578,-1.40234 0.46094,-0.42969 1.34375,-0.38672 1.94532,-0.52344 0.78906,-0.17969 1.97656,-0.65235 2.24609,-1.51563 0.72656,-2.28515 -1.53125,-2.14453 -3.32812,-2.1914"
         id="path1040-7"
         inkscape:connector-curvature="0" />
    </g>
  </g>
</svg>
